<?xml version="1.0" encoding="UTF-8" standalone="no"?>
<!-- Generator: Adobe Illustrator 25.2.0, SVG Export Plug-In . SVG Version: 6.00 Build 0)  -->

<svg
   xmlns:dc="http://purl.org/dc/elements/1.1/"
   xmlns:cc="http://creativecommons.org/ns#"
   xmlns:rdf="http://www.w3.org/1999/02/22-rdf-syntax-ns#"
   xmlns:svg="http://www.w3.org/2000/svg"
   xmlns="http://www.w3.org/2000/svg"
   xmlns:sodipodi="http://sodipodi.sourceforge.net/DTD/sodipodi-0.dtd"
   xmlns:inkscape="http://www.inkscape.org/namespaces/inkscape"
   version="1.1"
   id="Layer_1"
   x="0px"
   y="0px"
   viewBox="0 0 211.79155 211.79155"
   xml:space="preserve"
   sodipodi:docname="50-States-Today-Ekin-SVG_cropped.svg"
   width="211.79155"
   height="211.79155"
   inkscape:version="0.92.3 (2405546, 2018-03-11)"><metadata
   id="metadata41"><rdf:RDF><cc:Work
       rdf:about=""><dc:format>image/svg+xml</dc:format><dc:type
         rdf:resource="http://purl.org/dc/dcmitype/StillImage" /></cc:Work></rdf:RDF></metadata><defs
   id="defs39" /><sodipodi:namedview
   pagecolor="#ffffff"
   bordercolor="#666666"
   borderopacity="1"
   objecttolerance="10"
   gridtolerance="10"
   guidetolerance="10"
   inkscape:pageopacity="0"
   inkscape:pageshadow="2"
   inkscape:window-width="640"
   inkscape:window-height="480"
   id="namedview37"
   showgrid="false"
   inkscape:zoom="0.835"
   inkscape:cx="100.69001"
   inkscape:cy="105.90257"
   inkscape:window-x="0"
   inkscape:window-y="0"
   inkscape:window-maximized="0"
   inkscape:current-layer="Layer_1" />
<style
   type="text/css"
   id="style2">
	.st0{fill:#EC1C24;}
	.st1{fill:#002935;}
	.st2{fill:#FFFFFF;}
</style>
<rect
   x="-147.06284"
   y="52.429878"
   transform="rotate(-70.378166)"
   class="st0"
   width="165.75479"
   height="165.75479"
   id="rect4"
   style="fill:#ec1c24;stroke-width:0.99996865" />
<g
   id="g10"
   transform="translate(-99.309993,-6.6110287)">
	<path
   class="st1"
   d="m 161.69,119.31 c -11.58,0 -16.69,-6.02 -19.24,-11.49 l 8.94,-4.1 c 1.73,4.2 4.83,7.75 11.13,7.75 7.2,0 10.67,-4.74 10.67,-12.68 0,-8.02 -3.83,-11.86 -10.85,-11.86 -3.92,0 -6.66,1.64 -8.3,3.47 l -8.85,-3.01 2.74,-31.73 h 31.46 v 7.84 h -23.44 l -1.73,18.88 0.36,0.09 c 2.1,-1.64 5.75,-3.01 9.76,-3.01 11.76,0 18.06,6.29 18.06,18.42 -0.01,13.22 -7.94,21.43 -20.71,21.43 z"
   id="path6"
   inkscape:connector-curvature="0"
   style="fill:#002935" />
	<path
   class="st1"
   d="m 192.24,87.48 c 0,-22.25 7.2,-32.74 21.7,-32.74 14.77,0 21.07,10.21 21.07,32.1 0,22.07 -7.39,32.56 -21.8,32.56 -14.86,0 -20.97,-10.3 -20.97,-31.92 z m 21.52,23.9 c 9.12,0 12.04,-7.57 12.04,-23.89 0,-16.41 -3.56,-24.8 -12.49,-24.8 -9.03,0 -11.86,7.75 -11.86,24.17 0,16.4 3.47,24.52 12.31,24.52 z"
   id="path8"
   inkscape:connector-curvature="0"
   style="fill:#002935" />
</g>
<path
   class="st1"
   d="m 57.400007,145.49897 c 0,-6.12 -13.93,-4.85 -13.93,-14.18 0,-4.64 3.93,-8.19 9.5,-8.19 3.8,0 6.59,1.44 8.02,2.79 l -2.62,3.25 c -1.27,-1.1 -3.04,-2.24 -5.7,-2.24 -3.08,0 -4.9,1.73 -4.9,4.09 0,6.21 13.97,4.98 13.97,14.23 0,4.43 -3.59,8.32 -10.26,8.32 -4.85,0 -8.06,-1.86 -9.58,-3.25 l 2.49,-3.5 c 1.56,1.31 3.97,3 7.56,3 3.59,-0.01 5.45,-1.91 5.45,-4.32 z"
   id="path12"
   inkscape:connector-curvature="0"
   style="fill:#002935" />
<path
   class="st1"
   d="m 71.960007,127.75897 h -7.61 v -3.6 h 19.35 v 3.6 h -7.57 v 25.39 h -4.18 v -25.39 z"
   id="path14"
   inkscape:connector-curvature="0"
   style="fill:#002935" />
<path
   class="st1"
   d="m 97.880007,124.15897 9.260003,28.98 h -4.42 l -2.44,-7.94 H 89.240007 l -2.48,7.94 h -4.26 l 9.18,-28.98 z m -7.52,17.45 h 8.81 l -2.48,-8.06 c -0.5,-1.78 -1.61,-5.38 -1.86,-6.49 h -0.17 c -0.21,1.08 -1.32,4.75 -1.78,6.37 z"
   id="path16"
   inkscape:connector-curvature="0"
   style="fill:#002935" />
<path
   class="st1"
   d="m 113.51001,127.75897 h -7.61 v -3.6 h 19.35 v 3.6 h -7.56 v 25.39 h -4.18 z"
   id="path18"
   inkscape:connector-curvature="0"
   style="fill:#002935" />
<path
   class="st1"
   d="m 129.39001,153.14897 v -28.98 h 15.88 v 3.6 h -11.74 v 8.89 h 10.25 v 3.6 h -10.25 v 9.3 h 12.28 v 3.6 h -16.42 z"
   id="path20"
   inkscape:connector-curvature="0"
   style="fill:#002935" />
<path
   class="st1"
   d="m 164.24001,145.66897 c 0,-6 -13.64,-4.75 -13.64,-13.89 0,-4.55 3.85,-8.02 9.3,-8.02 3.72,0 6.45,1.41 7.86,2.73 l -2.56,3.18 c -1.24,-1.08 -2.98,-2.19 -5.58,-2.19 -3.02,0 -4.8,1.7 -4.8,4.01 0,6.08 13.69,4.88 13.69,13.93 0,4.34 -3.51,8.15 -10.05,8.15 -4.75,0 -7.9,-1.82 -9.39,-3.18 l 2.44,-3.43 c 1.53,1.28 3.89,2.94 7.4,2.94 3.51,-0.02 5.33,-1.88 5.33,-4.23 z"
   id="path22"
   inkscape:connector-curvature="0"
   style="fill:#002935" />
<g
   id="g34"
   transform="translate(-99.309993,-6.6110287)">
	<path
   class="st2"
   d="m 245.74,54.87 1.16,-0.49 -1.39,2.56 -1.04,-0.37 1.04,-2.68 8.44,2.97 -0.87,2.74 -1.04,-0.36 0.52,-2.86 0.59,1.1 z m 1.07,9.54 2.09,0.98 -0.25,0.7 -4.79,-1.68 0.25,-0.7 2.22,0.53 z m 0.33,-4.75 c 0.54,-1.53 1.08,-3.08 1.58,-4.63 l 2.02,0.71 c -0.57,1.49 -1.12,3.04 -1.67,4.6 l -0.23,0.64 c -0.54,1.54 -1.08,3.09 -1.58,4.64 l -2.02,-0.71 c 0.57,-1.49 1.12,-3.04 1.67,-4.6 z"
   id="path24"
   inkscape:connector-curvature="0"
   style="fill:#ffffff" />
	<path
   class="st2"
   d="m 262.26,65.33 c -1.18,3.35 -4.07,4.4 -6.46,3.56 -2.38,-0.84 -4.03,-3.39 -2.82,-6.82 1.18,-3.35 4.1,-4.39 6.47,-3.56 2.37,0.84 4.01,3.39 2.81,6.82 z m -6.18,2.76 c 1.79,0.63 3.24,-1.14 4.06,-3.5 0.83,-2.35 0.81,-4.65 -0.98,-5.28 -1.79,-0.63 -3.25,1.15 -4.08,3.5 -0.82,2.36 -0.79,4.65 1,5.28 z"
   id="path26"
   inkscape:connector-curvature="0"
   style="fill:#ffffff" />
	<path
   class="st2"
   d="m 264.64,61.41 0.25,-0.7 2.24,0.79 -0.32,0.92 -0.19,-0.07 z m -0.66,9.04 -0.32,0.92 -2.24,-0.79 0.25,-0.7 2.13,0.5 z m 0.56,-4.68 c 0.54,-1.53 1.08,-3.08 1.58,-4.63 l 2.02,0.71 c -0.57,1.49 -1.12,3.04 -1.67,4.6 l -0.19,0.53 c -0.58,1.65 -1.12,3.2 -1.62,4.75 l -2.02,-0.71 c 0.57,-1.49 1.12,-3.04 1.71,-4.71 z m -0.61,4.83 1.84,0.65 c 2.01,0.71 3.71,-0.4 4.64,-3.04 0.95,-2.72 0.3,-4.58 -1.64,-5.26 l -1.92,-0.68 0.27,-0.77 2.17,0.76 c 3,1.06 4.31,3.54 3.21,6.67 -1.11,3.16 -3.89,4.19 -6.96,3.11 l -1.88,-0.66 z"
   id="path28"
   inkscape:connector-curvature="0"
   style="fill:#ffffff" />
	<path
   class="st2"
   d="m 270.76,73.08 1.59,0.31 0.28,0.1 1.44,0.76 -0.25,0.7 -3.31,-1.16 z m 7.57,-7.7 1.22,0.43 -0.1,11.11 -1.97,-0.69 0.21,-9.42 0.59,-0.22 -6.04,7.8 -0.79,-0.28 z m -3.81,5.51 4.02,1.41 0.01,0.88 -4.55,-1.6 z m 1.61,4.1 1.86,0.4 0.65,0.23 1.8,0.88 -0.24,0.68 -4.31,-1.51 z"
   id="path30"
   inkscape:connector-curvature="0"
   style="fill:#ffffff" />
	<path
   class="st2"
   d="m 282.42,67.66 0.25,-0.7 4.49,1.58 -0.25,0.7 -1.99,-0.45 -0.48,-0.17 z m 1.78,7.26 -0.92,-7.74 2.21,0.78 0.57,6.4 -0.51,-0.14 4.55,-4.64 0.88,0.31 -5.54,5.47 z m 0.09,2.67 2.09,0.98 -0.25,0.7 -4.79,-1.68 0.25,-0.7 2.22,0.53 z m 0.08,-4.04 1.93,0.68 c -0.69,1.98 -1.12,3.19 -1.55,4.55 l -2.02,-0.71 c 0.5,-1.3 0.93,-2.52 1.64,-4.52 z m 5.35,-3.08 -1.45,-0.76 0.25,-0.7 3.25,1.14 -0.25,0.7 -1.49,-0.27 z"
   id="path32"
   inkscape:connector-curvature="0"
   style="fill:#ffffff" />
</g>
</svg>