<?xml version="1.0" encoding="UTF-8" standalone="no"?>
<svg
   xmlns:dc="http://purl.org/dc/elements/1.1/"
   xmlns:cc="http://creativecommons.org/ns#"
   xmlns:rdf="http://www.w3.org/1999/02/22-rdf-syntax-ns#"
   xmlns:svg="http://www.w3.org/2000/svg"
   xmlns="http://www.w3.org/2000/svg"
   xmlns:sodipodi="http://sodipodi.sourceforge.net/DTD/sodipodi-0.dtd"
   xmlns:inkscape="http://www.inkscape.org/namespaces/inkscape"
   id="Layer_1"
   data-name="Layer 1"
   viewBox="0 0 400.05466 189.55523"
   version="1.1"
   sodipodi:docname="NewsFromCanada-logo-b30-SVG_cropped.svg"
   width="400.05466"
   height="189.55522"
   inkscape:version="0.92.3 (2405546, 2018-03-11)">
  <metadata
     id="metadata39">
    <rdf:RDF>
      <cc:Work
         rdf:about="">
        <dc:format>image/svg+xml</dc:format>
        <dc:type
           rdf:resource="http://purl.org/dc/dcmitype/StillImage" />
      </cc:Work>
    </rdf:RDF>
  </metadata>
  <sodipodi:namedview
     pagecolor="#ffffff"
     bordercolor="#666666"
     borderopacity="1"
     objecttolerance="10"
     gridtolerance="10"
     guidetolerance="10"
     inkscape:pageopacity="0"
     inkscape:pageshadow="2"
     inkscape:window-width="640"
     inkscape:window-height="480"
     id="namedview37"
     showgrid="false"
     inkscape:zoom="0.835"
     inkscape:cx="200.00466"
     inkscape:cy="94.71523"
     inkscape:window-x="0"
     inkscape:window-y="0"
     inkscape:window-maximized="0"
     inkscape:current-layer="Layer_1" />
  <defs
     id="defs4">
    <style
       id="style2">.cls-1{fill:#ce272f;}.cls-2{fill:#34383c;}</style>
  </defs>
  <path
     class="cls-1"
     d="m 336.25466,68.61 c -7.75,-1.27 -15.19,-4.25 -23,-5.42 -3,2.49 -6.06,5 -9.09,7.43 h 77.11 c -3.36,-2.75 -6.59,-5.38 -9.24,-7.44 -8.52,2.3 -20,5.11 -24.78,6.14 -0.4,0.28 -0.37,-0.18 -0.07,-0.3 6.73,-2 28.42,-7.85 36.73,-9.92 3.5,-8.87 10.08,-26 13.24,-34.22 -11.64,2.28 -25.27,4.78 -35.65,6.77 -5.29,10.66 -15.53,32.66 -16.45,33.41 5.2,-11.21 10.27,-22.53 15.38,-33.84 -4.67,-8.07 -13.09,-23 -17.87,-31.22 -5.11,8.93 -15.51,27.26 -17.75,31.4 2.08,4.36 9.87,21.37 15,32.73 -6.59,-12.72 -10.6,-20.67 -15.91,-32.64 -11.75,-2.1 -23.47,-4.32 -35.19,-6.56 1.47,4 8.12,22.5 12,33.09 8.2,2.56 29.39,8.81 35.54,10.59 z"
     id="path6"
     inkscape:connector-curvature="0"
     style="fill:#ce272f" />
  <path
     class="cls-2"
     d="m 20.184661,92.79 a 6.49,6.49 0 0 0 3.25,2.54 v 1.7 H 5.0546606 v -1.7 a 6.88,6.88 0 0 0 3.32,-2.54 6.74,6.74 0 0 0 1.34,-4.1 v -54 a 6.62,6.62 0 0 0 -1.34,-4.16 7.11,7.11 0 0 0 -3.32,-2.47 v -1.7 H 29.634661 l 19.35,53.26 V 34.73 a 6.89,6.89 0 0 0 -1.27,-4.16 6.65,6.65 0 0 0 -3.25,-2.47 v -1.7 h 18.23 v 1.7 a 7.14,7.14 0 0 0 -3.33,2.47 6.68,6.68 0 0 0 -1.31,4.16 v 54 a 6.8,6.8 0 0 0 1.34,4.1 6.9,6.9 0 0 0 3.33,2.54 v 1.7 h -11.87 a 17.41,17.41 0 0 1 -10.66,-3.18 18.86,18.86 0 0 1 -6.86,-8.69 l -14.4,-40 v 43.51 a 7,7 0 0 0 1.25,4.08 z"
     id="path8"
     inkscape:connector-curvature="0"
     style="fill:#34383c" />
  <path
     class="cls-2"
     d="m 111.43466,86.65 a 7.09,7.09 0 0 0 2.54,-3.33 h 3 l -3.67,13.71 H 71.454661 v -1.7 a 6.88,6.88 0 0 0 3.32,-2.54 7,7 0 0 0 1.34,-4.24 V 34.87 a 7,7 0 0 0 -1.34,-4.23 7,7 0 0 0 -3.32,-2.54 v -1.7 h 41.109999 l 2.4,9 1.41,4.66 h -3.11 a 7.18,7.18 0 0 0 -2.47,-3.32 6.73,6.73 0 0 0 -4.17,-1.34 H 93.914661 v 21.53 h 8.999999 a 7.77,7.77 0 0 0 6.08,-3 h 3 l -4.66,16.67 h -1.55 a 7.22,7.22 0 0 0 -2.19,-3.18 7.09,7.09 0 0 0 -3.46,-1.48 h -6.219999 v 22 h 13.419999 a 6.84,6.84 0 0 0 4.1,-1.29 z"
     id="path10"
     inkscape:connector-curvature="0"
     style="fill:#34383c" />
  <path
     class="cls-2"
     d="m 165.24466,97.03 h -4.66 c -0.75,-0.19 -1.46,-0.35 -2.12,-0.49 -0.66,-0.14 -1.36,-0.31 -2.12,-0.5 a 19.61,19.61 0 0 1 -7.84,-5 21.45,21.45 0 0 1 -4.87,-8 l -13.14,-49.44 a 8,8 0 0 0 -2.47,-3.46 10.22,10.22 0 0 0 -3.74,-2 v -1.7 h 26.56 v 1.7 a 5.17,5.17 0 0 0 -2.41,2.19 4,4 0 0 0 -0.28,3.31 l 12.43,46.48 10.17,-37.44 -2.4,-9 a 8,8 0 0 0 -2.47,-3.46 10.22,10.22 0 0 0 -3.74,-2 v -1.7 h 26.55 v 1.83 a 5,5 0 0 0 -2.33,2.12 4.42,4.42 0 0 0 -0.35,3.25 l 12.29,46.48 12.57,-46.48 a 4.52,4.52 0 0 0 -0.35,-3.25 5,5 0 0 0 -2.34,-2.12 v -1.83 h 17.94 v 1.7 a 11.38,11.38 0 0 0 -3.81,2 5.8,5.8 0 0 0 -2.26,3.53 l -17.09,63.43 h -4.66 c -0.76,-0.19 -1.46,-0.35 -2.12,-0.49 -0.66,-0.14 -1.32,-0.31 -2,-0.5 a 19.1,19.1 0 0 1 -7.77,-5 21.82,21.82 0 0 1 -4.8,-8 l -6.36,-23.3 z"
     id="path12"
     inkscape:connector-curvature="0"
     style="fill:#34383c" />
  <path
     class="cls-2"
     d="m 234.88466,97.03 h -2.4 V 70.19 h 3.25 a 55,55 0 0 0 3.53,7.84 26.1,26.1 0 0 0 5.37,6.85 21,21 0 0 0 4.52,3.11 18.35,18.35 0 0 0 5.58,1.9 17.45,17.45 0 0 0 5.72,0.07 9.48,9.48 0 0 0 4.94,-2.26 8.25,8.25 0 0 0 2.83,-5.72 7.56,7.56 0 0 0 -1.84,-5.86 16.86,16.86 0 0 0 -5.72,-3.81 c -2.4,-1 -5,-2.07 -7.7,-3.11 -2.7,-1.04 -5.51,-2.14 -8.33,-3.32 a 32.09,32.09 0 0 1 -7.58,-4.45 18.68,18.68 0 0 1 -5.3,-6.49 17.67,17.67 0 0 1 -1.76,-7.77 20.45,20.45 0 0 1 1.76,-9.33 20.2,20.2 0 0 1 5.23,-6.92 24.2,24.2 0 0 1 7.77,-4.38 28.41,28.41 0 0 1 9.3,-1.55 35.8,35.8 0 0 1 8.69,1 44,44 0 0 1 6.71,2.12 3.09,3.09 0 0 0 2,-0.15 2.16,2.16 0 0 0 1.2,-1.55 h 3.53 l 4.8,17.66 h -6.93 a 11,11 0 0 0 -2.82,-4.88 19.07,19.07 0 0 0 -5,-3.67 25.33,25.33 0 0 0 -6.07,-2.19 19.63,19.63 0 0 0 -6.21,-0.4 9.56,9.56 0 0 0 -5.72,2.19 6.74,6.74 0 0 0 -2.47,4.44 6.92,6.92 0 0 0 1.69,5.09 q 2,2.55 6.92,4.24 5.1,1.83 10.6,3.74 a 45.1,45.1 0 0 1 10,4.88 26.59,26.59 0 0 1 7.49,7.34 19.3,19.3 0 0 1 3,11 20.74,20.74 0 0 1 -2.33,10.17 20.83,20.83 0 0 1 -6.15,7 25.72,25.72 0 0 1 -8.68,4 39.2,39.2 0 0 1 -10,1.27 29.75,29.75 0 0 1 -8,-1.06 62.5,62.5 0 0 1 -7.77,-2.75 9.16,9.16 0 0 0 -4.52,-0.85 c -1.62,0.1 -2.66,1.24 -3.13,3.4 z"
     id="path14"
     inkscape:connector-curvature="0"
     style="fill:#34383c" />
  <path
     class="cls-2"
     d="m 19.614661,145.98 a 38.21,38.21 0 0 0 0.28,8 44.84,44.84 0 0 0 1.83,7.91 37.6,37.6 0 0 0 3.33,7.27 23.53,23.53 0 0 0 5,6 q 6.5,5.93 14,5.58 a 27.41,27.41 0 0 0 14.55,-5.29 v 8 a 23.32,23.32 0 0 1 -7.63,4 42.44,42.44 0 0 1 -9.46,1.91 52.78,52.78 0 0 1 -9.82,-0.07 40.79,40.79 0 0 1 -8.68,-1.77 31.24,31.24 0 0 1 -14.2000004,-9.53 37.83,37.83 0 0 1 -7.42,-14.27 40.17,40.17 0 0 1 -1.00000001,-16.11 40.27,40.27 0 0 1 5.15000001,-15.11 33.39,33.39 0 0 1 10.9500004,-11.3 30.67,30.67 0 0 1 16.56,-4.47 31.49,31.49 0 0 1 4.6,0.35 q 2.32,0.36 4.38,0.84 c 1.36,0.35 2.61,0.67 3.74,1 a 23,23 0 0 1 2.68,0.92 c 1.22,0.47 1.88,0.49 2,0.07 0.12,-0.42 0.24,-1 0.42,-1.77 h 3.18 l 4.81,17.66 h -7.92 q -1.83,-6.78 -6.71,-9.81 a 13.59,13.59 0 0 0 -10.17,-2 q -5.29,1.08 -9.6,6.44 -4.31,5.36 -4.85,15.55 z"
     id="path16"
     inkscape:connector-curvature="0"
     style="fill:#34383c" />
  <path
     class="cls-2"
     d="m 65.514661,187.07 a 9.29,9.29 0 0 0 4,-2.54 10.11,10.11 0 0 0 2.47,-4.24 l 14.58,-54.36 a 5.24,5.24 0 0 0 -0.28,-3.39 5.69,5.69 0 0 0 -2.26,-2.68 v -1.7 h 22.319999 l 16.71,62.13 a 10.54,10.54 0 0 0 2.41,4.24 8.73,8.73 0 0 0 4.09,2.54 v 1.7 h -26.7 v -2 a 5.36,5.36 0 0 0 2.34,-2.56 5.43,5.43 0 0 0 0.07,-3.95 l -3.11,-11.44 H 84.214661 l -3.16,11.47 a 6.57,6.57 0 0 0 0.07,3.95 4.73,4.73 0 0 0 2.19,2.56 v 2 h -17.8 z m 34.889999,-25.14 -7.199999,-26.84 -7.15,26.84 z"
     id="path18"
     inkscape:connector-curvature="0"
     style="fill:#34383c" />
  <path
     class="cls-2"
     d="m 152.24466,184.53 a 6.49,6.49 0 0 0 3.25,2.54 v 1.7 h -18.36 v -1.7 a 6.92,6.92 0 0 0 3.32,-2.54 6.76,6.76 0 0 0 1.34,-4.1 v -54 a 6.75,6.75 0 0 0 -1.34,-4.17 7.21,7.21 0 0 0 -3.32,-2.46 v -1.7 h 24.57 l 19.35,53.3 v -44.93 a 7,7 0 0 0 -1.27,-4.17 6.74,6.74 0 0 0 -3.25,-2.46 v -1.7 h 18.22 v 1.7 a 7.11,7.11 0 0 0 -3.32,2.46 6.69,6.69 0 0 0 -1.34,4.17 v 54 a 6.69,6.69 0 0 0 1.34,4.1 6.83,6.83 0 0 0 3.32,2.54 v 1.7 h -11.87 a 17.34,17.34 0 0 1 -10.66,-3.17 18.78,18.78 0 0 1 -6.85,-8.69 l -14.41,-40 v 43.5 a 7,7 0 0 0 1.28,4.08 z"
     id="path20"
     inkscape:connector-curvature="0"
     style="fill:#34383c" />
  <path
     class="cls-2"
     d="m 203.52466,187.07 a 9.32,9.32 0 0 0 4,-2.54 10.13,10.13 0 0 0 2.48,-4.24 l 14.56,-54.36 a 5.24,5.24 0 0 0 -0.28,-3.39 5.64,5.64 0 0 0 -2.26,-2.68 v -1.7 h 22.32 l 16.71,62.13 a 10.4,10.4 0 0 0 2.4,4.24 8.72,8.72 0 0 0 4.1,2.54 v 1.7 h -26.7 v -2 a 5.34,5.34 0 0 0 2.33,-2.56 5.38,5.38 0 0 0 0.07,-3.95 l -3.11,-11.44 h -17.94 l -3.1,11.44 a 6.49,6.49 0 0 0 0.07,3.95 4.65,4.65 0 0 0 2.19,2.56 v 2 h -17.8 z m 34.89,-25.14 -7.2,-26.84 -7.16,26.84 z"
     id="path22"
     inkscape:connector-curvature="0"
     style="fill:#34383c" />
  <path
     class="cls-2"
     d="m 297.59466,118.14 q 5.79,0.15 10.66,0.64 a 35.87,35.87 0 0 1 9.26,2.15 26.14,26.14 0 0 1 10.59,7.64 34.56,34.56 0 0 1 6.36,11.51 42.38,42.38 0 0 1 2.12,13.34 42.46,42.46 0 0 1 -2.12,13.36 34.76,34.76 0 0 1 -6.36,11.51 26.28,26.28 0 0 1 -10.59,7.64 35.49,35.49 0 0 1 -9.26,2.2 106.17,106.17 0 0 1 -10.66,0.48 l -22.46,0.15 v -1.7 a 6.49,6.49 0 0 0 3.25,-2.54 7.2,7.2 0 0 0 1.27,-4.24 v -53.67 a 7.21,7.21 0 0 0 -1.27,-4.23 6.61,6.61 0 0 0 -3.25,-2.54 v -1.7 z m -0.14,7.35 v 56.36 a 18,18 0 0 0 5.65,-0.36 12.81,12.81 0 0 0 5.08,-2.18 13.41,13.41 0 0 0 4.87,-5.87 38.4,38.4 0 0 0 2.89,-9.1 55.85,55.85 0 0 0 1,-10.67 55.51,55.51 0 0 0 -1,-10.66 39.77,39.77 0 0 0 -2.89,-9.19 13.35,13.35 0 0 0 -4.87,-5.89 12.45,12.45 0 0 0 -5.08,-2.11 19.48,19.48 0 0 0 -5.65,-0.33 z"
     id="path24"
     inkscape:connector-curvature="0"
     style="fill:#34383c" />
  <path
     class="cls-2"
     d="m 336.05466,187.07 a 9.29,9.29 0 0 0 4,-2.54 10.11,10.11 0 0 0 2.47,-4.24 l 14.53,-54.36 a 5.3,5.3 0 0 0 -0.28,-3.39 5.69,5.69 0 0 0 -2.26,-2.68 v -1.7 h 22.33 l 16.66,62.15 a 10.54,10.54 0 0 0 2.41,4.24 8.73,8.73 0 0 0 4.14,2.52 v 1.7 h -26.75 v -2 a 5.36,5.36 0 0 0 2.34,-2.56 5.43,5.43 0 0 0 0.07,-3.95 l -3.11,-11.44 h -17.94 l -3.11,11.47 a 6.57,6.57 0 0 0 0.07,3.95 4.73,4.73 0 0 0 2.19,2.56 v 2 h -17.76 z m 34.85,-25.14 -7.2,-26.84 -7.2,26.84 z"
     id="path26"
     inkscape:connector-curvature="0"
     style="fill:#34383c" />
  <path
     class="cls-1"
     d="m 315.22466,79.93 h -11.56 v 5.61 h 10.25 v 3.22 h -10.25 v 8.29 h -3.55 V 76.69 h 15.11 z"
     id="path28"
     inkscape:connector-curvature="0"
     style="fill:#ce272f" />
  <path
     class="cls-1"
     d="m 332.22466,97.03 -5,-7.09 h -4.49 v 7.09 h -3.55 V 76.69 h 9.07 a 10.33,10.33 0 0 1 3.15,0.45 7,7 0 0 1 2.38,1.27 5.64,5.64 0 0 1 1.5,2 6.65,6.65 0 0 1 0.52,2.69 6.73,6.73 0 0 1 -0.36,2.28 5.89,5.89 0 0 1 -1,1.77 6.06,6.06 0 0 1 -1.53,1.31 7.32,7.32 0 0 1 -2,0.83 l 5.49,7.7 z m -1.17,-16.25 a 5,5 0 0 0 -3.13,-0.87 h -5.21 v 6.86 h 5.25 a 4.64,4.64 0 0 0 3.09,-0.94 3.08,3.08 0 0 0 1.13,-2.5 3,3 0 0 0 -1.13,-2.55 z"
     id="path30"
     inkscape:connector-curvature="0"
     style="fill:#ce272f" />
  <path
     class="cls-1"
     d="m 359.76466,90.93 a 10.16,10.16 0 0 1 -2.2,3.35 10.8,10.8 0 0 1 -3.38,2.29 10.83,10.83 0 0 1 -4.29,0.84 11,11 0 0 1 -4.31,-0.83 10.57,10.57 0 0 1 -3.34,-2.25 10.3,10.3 0 0 1 -2.19,-3.4 10.54,10.54 0 0 1 -0.79,-4.07 10.54,10.54 0 0 1 0.79,-4.07 10.15,10.15 0 0 1 2.2,-3.36 10.84,10.84 0 0 1 3.37,-2.28 10.74,10.74 0 0 1 4.3,-0.84 11,11 0 0 1 4.31,0.83 10.09,10.09 0 0 1 3.33,2.25 10.22,10.22 0 0 1 2.18,3.34 10.54,10.54 0 0 1 0.79,4.07 10.54,10.54 0 0 1 -0.77,4.13 z m -3.47,-6.81 a 7.1,7.1 0 0 0 -1.42,-2.32 6.63,6.63 0 0 0 -2.19,-1.56 6.68,6.68 0 0 0 -2.79,-0.59 6.68,6.68 0 0 0 -2.78,0.57 6.49,6.49 0 0 0 -2.16,1.51 7.11,7.11 0 0 0 -1.41,2.29 7.78,7.78 0 0 0 -0.49,2.81 7.69,7.69 0 0 0 0.51,2.8 7.16,7.16 0 0 0 1.4,2.3 6.66,6.66 0 0 0 2.19,1.57 6.68,6.68 0 0 0 2.79,0.59 6.68,6.68 0 0 0 2.78,-0.58 6.45,6.45 0 0 0 2.16,-1.54 7.11,7.11 0 0 0 1.41,-2.29 7.73,7.73 0 0 0 0.51,-2.8 7.65,7.65 0 0 0 -0.51,-2.79 z"
     id="path32"
     inkscape:connector-curvature="0"
     style="fill:#ce272f" />
  <path
     class="cls-1"
     d="m 374.90466,92.03 h -0.11 l -6.37,-9.53 v 14.53 h -3.54 V 76.69 h 3.8 l 6.19,9.61 6.18,-9.61 h 3.81 v 20.34 h -3.53 V 82.44 Z"
     id="path34"
     inkscape:connector-curvature="0"
     style="fill:#ce272f" />
</svg>
