<?xml version="1.0" encoding="UTF-8" standalone="no"?>
<!-- Generator: Adobe Illustrator 25.2.0, SVG Export Plug-In . SVG Version: 6.00 Build 0)  -->

<svg
   xmlns:dc="http://purl.org/dc/elements/1.1/"
   xmlns:cc="http://creativecommons.org/ns#"
   xmlns:rdf="http://www.w3.org/1999/02/22-rdf-syntax-ns#"
   xmlns:svg="http://www.w3.org/2000/svg"
   xmlns="http://www.w3.org/2000/svg"
   xmlns:sodipodi="http://sodipodi.sourceforge.net/DTD/sodipodi-0.dtd"
   xmlns:inkscape="http://www.inkscape.org/namespaces/inkscape"
   version="1.1"
   id="Layer_1"
   x="0px"
   y="0px"
   viewBox="0 0 354.20001 176.7"
   xml:space="preserve"
   sodipodi:docname="State-of-the-Union-News-Ekin-SVG_cropped.svg"
   width="354.20001"
   height="176.7"
   inkscape:version="0.92.3 (2405546, 2018-03-11)"><metadata
   id="metadata57"><rdf:RDF><cc:Work
       rdf:about=""><dc:format>image/svg+xml</dc:format><dc:type
         rdf:resource="http://purl.org/dc/dcmitype/StillImage" /></cc:Work></rdf:RDF></metadata><defs
   id="defs55" /><sodipodi:namedview
   pagecolor="#ffffff"
   bordercolor="#666666"
   borderopacity="1"
   objecttolerance="10"
   gridtolerance="10"
   guidetolerance="10"
   inkscape:pageopacity="0"
   inkscape:pageshadow="2"
   inkscape:window-width="640"
   inkscape:window-height="480"
   id="namedview53"
   showgrid="false"
   inkscape:zoom="0.835"
   inkscape:cx="187.6"
   inkscape:cy="87.900003"
   inkscape:window-x="0"
   inkscape:window-y="0"
   inkscape:window-maximized="0"
   inkscape:current-layer="Layer_1" />
<style
   type="text/css"
   id="style2">
	.st0{fill:#363B68;}
	.st1{fill:#FFFFFF;}
	.st2{fill:#BB3528;}
</style>
<g
   id="g42"
   transform="translate(-12.4,-23.700001)">
	<path
   class="st0"
   d="m 199.5,53 c -0.6,1.2 -1.4,2.2 -2.5,3 -1.1,0.8 -2.4,1.5 -3.9,1.9 -1.5,0.4 -3.1,0.6 -4.9,0.6 -1.5,0 -2.8,-0.1 -3.9,-0.3 -1.1,-0.2 -2,-0.4 -2.7,-0.7 -0.7,-0.3 -1.3,-0.5 -1.6,-0.7 -0.4,-0.2 -0.6,-0.3 -0.7,-0.3 -0.1,0 -0.3,0.2 -0.6,0.6 -0.3,0.4 -0.6,0.7 -0.8,1.1 h -0.4 l -0.1,-9.3 h 0.5 c 0.3,0.8 0.6,1.7 1.1,2.5 0.4,0.8 0.9,1.5 1.4,2.2 0.5,0.7 1.1,1.3 1.6,1.8 0.6,0.5 1.1,0.9 1.7,1.2 0.5,0.3 1.2,0.6 2.1,0.8 0.9,0.3 1.7,0.4 2.5,0.4 2.3,0 4.2,-0.6 5.6,-1.9 1.4,-1.3 2.1,-3 2.1,-5.1 0,-0.9 -0.1,-1.6 -0.4,-2.3 -0.3,-0.7 -0.7,-1.2 -1.1,-1.7 -0.5,-0.5 -1.1,-0.9 -1.7,-1.2 -0.7,-0.3 -1.4,-0.7 -2.1,-0.9 -0.7,-0.3 -1.4,-0.5 -2,-0.7 -0.6,-0.2 -1.1,-0.4 -1.6,-0.5 -0.5,-0.2 -1,-0.3 -1.5,-0.5 -0.5,-0.2 -1.1,-0.4 -1.8,-0.7 -0.8,-0.3 -1.6,-0.7 -2.3,-1.3 -0.7,-0.5 -1.4,-1.2 -2,-1.9 -0.6,-0.7 -1,-1.5 -1.4,-2.4 -0.3,-0.9 -0.5,-1.8 -0.5,-2.8 0,-1.7 0.3,-3.1 0.9,-4.3 0.6,-1.2 1.4,-2.2 2.5,-3 1,-0.8 2.2,-1.4 3.6,-1.8 1.4,-0.4 2.8,-0.6 4.3,-0.6 1.4,0 2.6,0.1 3.6,0.4 1,0.2 1.8,0.5 2.5,0.8 0.6,0.3 1.1,0.5 1.4,0.8 0.3,0.2 0.5,0.4 0.5,0.4 0.1,0 0.3,-0.2 0.6,-0.6 0.3,-0.4 0.6,-0.7 0.8,-1.1 h 0.5 v 8.6 h -0.5 c -0.4,-1 -0.9,-2 -1.4,-3.1 -0.6,-1 -1.3,-1.9 -2.1,-2.7 -0.8,-0.8 -1.7,-1.4 -2.7,-1.9 -1,-0.5 -2.1,-0.7 -3.3,-0.7 -1,0 -1.9,0.1 -2.7,0.4 -0.9,0.3 -1.6,0.7 -2.2,1.3 -0.6,0.6 -1.1,1.3 -1.5,2.1 -0.4,0.8 -0.5,1.8 -0.5,2.8 0,1.7 0.5,3 1.5,4 1,1 2.3,1.8 3.9,2.4 0.6,0.2 1.2,0.5 1.7,0.7 0.5,0.2 1.1,0.4 1.6,0.5 0.5,0.2 1.1,0.4 1.6,0.5 0.5,0.2 1.1,0.4 1.7,0.6 2.1,0.8 3.8,1.9 4.9,3.4 1.2,1.5 1.7,3.3 1.7,5.5 -0.1,1.1 -0.4,2.5 -1,3.7 z"
   id="path4"
   inkscape:connector-curvature="0"
   style="fill:#363b68" />
	<path
   class="st0"
   d="m 217.5,38.9 h -7.1 v 12.3 c 0,1.6 0.3,2.7 1,3.5 0.7,0.7 1.6,1.1 2.7,1.1 0.9,0 1.7,-0.1 2.2,-0.4 0.6,-0.3 1.1,-0.8 1.5,-1.4 l 0.3,0.1 c -0.2,0.5 -0.4,1 -0.8,1.5 -0.3,0.5 -0.8,1 -1.3,1.4 -0.5,0.4 -1.2,0.7 -1.9,1 -0.7,0.2 -1.6,0.4 -2.6,0.4 -0.7,0 -1.3,-0.1 -1.9,-0.3 -0.6,-0.2 -1.1,-0.5 -1.6,-0.9 -0.5,-0.4 -0.8,-0.8 -1.1,-1.3 -0.3,-0.5 -0.4,-1 -0.4,-1.5 0,-2.9 0,-5.7 0,-8.3 0,-2.6 0,-5 0,-7 h -3.4 v -0.5 l 6.7,-6.4 h 0.4 v 4.1 h 8.6 z"
   id="path6"
   inkscape:connector-curvature="0"
   style="fill:#363b68" />
	<path
   class="st0"
   d="m 239,55.3 c -0.2,0.6 -0.6,1.1 -1,1.5 -0.4,0.5 -0.9,0.8 -1.4,1 -0.5,0.2 -1.1,0.4 -1.8,0.4 -1.1,0 -2,-0.3 -2.8,-0.9 -0.8,-0.6 -1.2,-1.7 -1.2,-3.3 h -0.1 c -0.2,0.4 -0.6,0.9 -1,1.4 -0.4,0.5 -0.9,1 -1.5,1.4 -0.6,0.4 -1.2,0.8 -1.9,1.1 -0.7,0.3 -1.5,0.4 -2.3,0.4 -0.5,0 -1,-0.1 -1.5,-0.2 -0.5,-0.1 -1,-0.4 -1.4,-0.7 -0.4,-0.4 -0.8,-0.8 -1,-1.4 -0.3,-0.6 -0.4,-1.2 -0.4,-2.1 0,-0.9 0.4,-1.7 1.1,-2.5 0.7,-0.8 1.6,-1.5 2.6,-2.2 1,-0.7 1.9,-1.2 2.7,-1.7 0.8,-0.5 1.5,-0.9 2.1,-1.2 0.6,-0.3 1.1,-0.6 1.6,-0.8 0.5,-0.2 0.8,-0.4 1.1,-0.6 v -4.8 c 0,-0.1 -0.1,-0.2 -0.2,-0.4 -0.1,-0.2 -0.3,-0.5 -0.6,-0.7 -0.3,-0.2 -0.6,-0.5 -1.1,-0.7 -0.5,-0.2 -1.1,-0.3 -1.8,-0.3 -0.5,0 -1,0.1 -1.5,0.3 -0.5,0.2 -0.9,0.4 -1.3,0.7 -0.4,0.3 -0.7,0.5 -0.9,0.8 -0.2,0.3 -0.3,0.5 -0.3,0.7 v 2.1 c 0,0.4 -0.2,0.8 -0.7,1.2 -0.5,0.3 -0.9,0.5 -1.5,0.5 -0.5,0 -0.9,-0.2 -1.3,-0.5 -0.4,-0.4 -0.5,-0.8 -0.5,-1.2 0,-0.4 0.1,-0.7 0.3,-1 0.2,-0.3 0.4,-0.6 0.7,-0.8 0.3,-0.2 0.6,-0.5 0.9,-0.7 0.3,-0.2 0.6,-0.4 0.9,-0.5 0.8,-0.5 1.6,-0.9 2.5,-1.4 0.8,-0.4 1.6,-0.8 2.4,-1.1 0.8,-0.3 1.5,-0.6 2.1,-0.7 0.6,-0.2 1.2,-0.3 1.6,-0.3 0.8,0 1.6,0.2 2.3,0.6 0.7,0.4 1.2,0.9 1.5,1.6 0.1,0.2 0.2,0.6 0.2,1.1 0,0.5 0,1.1 0,1.6 0,1.1 0,2.1 0,3 0,0.9 0,1.8 0,2.6 0,0.8 0,1.7 0,2.6 0,0.9 0,1.9 0,2.9 0,1.4 0.2,2.3 0.7,2.8 0.5,0.5 1,0.7 1.7,0.7 0.7,0 1.2,-0.1 1.6,-0.4 0.3,-0.3 0.6,-0.7 0.7,-1.1 h 0.3 c -0.2,0.1 -0.3,0.6 -0.6,1.2 z m -8.2,-9.9 c -0.6,0.4 -1.3,0.8 -2.1,1.3 -0.8,0.5 -1.7,0.9 -2.5,1.5 -0.8,0.5 -1.5,1.1 -2.1,1.8 -0.6,0.6 -0.9,1.4 -0.9,2.2 0,0.8 0.3,1.5 0.8,2.2 0.6,0.7 1.3,1 2.2,1 0.8,0 1.5,-0.1 2.1,-0.3 0.6,-0.2 1.2,-0.5 1.7,-1.1 0.4,-0.3 0.6,-0.8 0.6,-1.3 v -7.3 z"
   id="path8"
   inkscape:connector-curvature="0"
   style="fill:#363b68" />
	<path
   class="st0"
   d="m 253.6,38.9 h -7.1 v 12.3 c 0,1.6 0.3,2.7 1,3.5 0.7,0.7 1.6,1.1 2.7,1.1 0.9,0 1.7,-0.1 2.2,-0.4 0.6,-0.3 1.1,-0.8 1.5,-1.4 l 0.3,0.1 c -0.2,0.5 -0.4,1 -0.8,1.5 -0.3,0.5 -0.8,1 -1.3,1.4 -0.5,0.4 -1.2,0.7 -1.9,1 -0.7,0.2 -1.6,0.4 -2.6,0.4 -0.7,0 -1.3,-0.1 -1.9,-0.3 -0.6,-0.2 -1.1,-0.5 -1.6,-0.9 -0.5,-0.4 -0.8,-0.8 -1.1,-1.3 -0.3,-0.5 -0.4,-1 -0.4,-1.5 0,-2.9 0,-5.7 0,-8.3 0,-2.6 0,-5 0,-7 h -3.4 V 38.6 L 246,32 h 0.4 v 4.1 h 8.6 z"
   id="path10"
   inkscape:connector-curvature="0"
   style="fill:#363b68" />
	<path
   class="st0"
   d="m 273.2,53.4 c -0.4,0.9 -1,1.6 -1.8,2.4 -0.7,0.7 -1.6,1.3 -2.7,1.8 -1,0.5 -2.2,0.7 -3.5,0.7 -1.6,0 -3,-0.3 -4.3,-0.9 -1.3,-0.6 -2.4,-1.4 -3.3,-2.5 -0.9,-1.1 -1.6,-2.3 -2.1,-3.8 -0.5,-1.4 -0.7,-3 -0.7,-4.6 0,-1.3 0.2,-2.6 0.7,-3.9 0.5,-1.3 1.1,-2.5 2,-3.5 0.9,-1 1.9,-1.9 3.1,-2.5 1.2,-0.6 2.6,-1 4.1,-1 1.2,0 2.4,0.2 3.4,0.5 1.1,0.3 2,0.8 2.8,1.4 0.8,0.6 1.4,1.4 1.9,2.4 0.5,1 0.8,2.1 0.9,3.4 h -15 c 0,0.2 0,0.5 0,0.9 0,0.3 0,0.7 0,1 0,1.3 0.2,2.6 0.6,3.8 0.4,1.2 0.9,2.3 1.6,3.2 0.7,0.9 1.6,1.6 2.7,2.2 1.1,0.5 2.4,0.8 3.8,0.8 1.6,0 2.9,-0.4 4.1,-1.2 1.2,-0.8 1.9,-1.8 2.3,-2.9 l 0.4,0.1 c -0.3,0.5 -0.6,1.3 -1,2.2 z m -5.4,-15.8 c -0.8,-0.8 -1.9,-1.2 -3.2,-1.2 -0.9,0 -1.7,0.3 -2.4,0.8 -0.7,0.5 -1.3,1.1 -1.8,1.8 -0.5,0.7 -0.9,1.4 -1.2,2.1 -0.3,0.7 -0.5,1.2 -0.5,1.6 0.7,0 1.4,0 1.9,0 0.5,0 1.1,0 1.7,0 0.5,0 1.1,0 1.7,0 0.6,0 1.2,0 2,0 0.5,0 0.9,0 1.3,0 0.4,0 0.8,-0.1 1.1,-0.2 0.2,-0.2 0.4,-0.5 0.5,-0.7 0.1,-0.2 0.2,-0.5 0.2,-1 -0.1,-1.4 -0.5,-2.4 -1.3,-3.2 z"
   id="path12"
   inkscape:connector-curvature="0"
   style="fill:#363b68" />
	<path
   class="st0"
   d="m 306,51.2 c -0.6,1.4 -1.4,2.7 -2.4,3.7 -1,1.1 -2.2,1.9 -3.5,2.5 -1.3,0.6 -2.7,0.9 -4.2,0.9 -1.2,0 -2.5,-0.2 -3.8,-0.7 -1.3,-0.4 -2.5,-1.1 -3.6,-2.1 -1.1,-0.9 -2,-2.2 -2.7,-3.6 -0.7,-1.5 -1.1,-3.2 -1.1,-5.2 0,-1.4 0.3,-2.8 0.8,-4.2 0.5,-1.3 1.3,-2.5 2.3,-3.6 1,-1 2.2,-1.9 3.6,-2.5 1.4,-0.6 2.9,-0.9 4.6,-0.9 1.2,0 2.5,0.2 3.8,0.7 1.3,0.5 2.4,1.2 3.5,2.1 1,0.9 1.9,2.1 2.6,3.5 0.7,1.4 1,3 1,4.9 0,1.6 -0.3,3.1 -0.9,4.5 z m -3.8,-8 c -0.2,-1.2 -0.6,-2.3 -1.1,-3.4 -0.5,-1 -1.2,-1.9 -2.1,-2.5 -0.9,-0.7 -1.9,-1 -3.2,-1 -1,0 -1.9,0.3 -2.8,0.9 -0.8,0.6 -1.5,1.4 -2.1,2.5 -0.6,1 -1,2.1 -1.3,3.4 -0.3,1.3 -0.4,2.5 -0.4,3.9 0,1.4 0.1,2.8 0.4,4.1 0.2,1.3 0.7,2.4 1.2,3.4 0.6,1 1.3,1.8 2.1,2.3 0.9,0.6 1.9,0.9 3.1,0.9 1.2,0 2.2,-0.4 3.1,-1.1 0.8,-0.7 1.5,-1.7 2,-2.8 0.5,-1.1 0.9,-2.3 1.1,-3.6 0.2,-1.3 0.4,-2.5 0.4,-3.6 0,-1 -0.1,-2.1 -0.4,-3.4 z"
   id="path14"
   inkscape:connector-curvature="0"
   style="fill:#363b68" />
	<path
   class="st0"
   d="m 325,28.2 c -0.4,0.5 -0.8,0.7 -1.4,0.7 -0.6,0 -1,-0.1 -1.4,-0.4 -0.4,-0.3 -0.7,-0.6 -1.1,-1 -0.3,-0.4 -0.6,-0.8 -0.9,-1.1 -0.3,-0.4 -0.6,-0.6 -1,-0.7 -0.2,0 -0.5,0 -0.8,0.1 -0.3,0.1 -0.7,0.3 -1.1,0.6 -0.4,0.3 -0.7,0.7 -0.9,1.3 -0.3,0.6 -0.4,1.3 -0.5,2.3 -0.1,1.2 -0.1,2.3 -0.1,3.2 0,0.9 0,1.9 0,3 h 5.5 l -0.6,2.1 h -5 v 18.2 c 0.1,0.3 0.2,0.5 0.5,0.7 0.2,0.2 0.6,0.3 0.9,0.4 0.4,0.1 0.8,0.2 1.2,0.2 0.5,0 0.9,0.1 1.4,0.1 v 0.5 h -11.9 v -0.5 c 0.3,0 0.7,-0.1 1.2,-0.2 0.5,-0.1 0.9,-0.2 1.3,-0.3 0.4,-0.1 0.8,-0.2 1.1,-0.4 0.3,-0.2 0.4,-0.4 0.4,-0.6 V 38.1 h -3.4 l 0.5,-2.1 h 2.9 c 0,-1.3 0,-2.6 0.1,-3.9 0.1,-1.3 0.3,-2.2 0.6,-2.9 0.3,-0.7 0.8,-1.4 1.4,-2 0.6,-0.6 1.3,-1.1 2.1,-1.6 0.8,-0.5 1.7,-0.8 2.6,-1.1 0.9,-0.3 1.9,-0.4 2.9,-0.4 0.5,0 0.9,0 1.4,0.1 0.5,0.1 0.9,0.2 1.2,0.4 0.4,0.2 0.7,0.4 0.9,0.7 0.2,0.3 0.4,0.7 0.4,1.1 0.1,0.8 -0.1,1.3 -0.4,1.8 z"
   id="path16"
   inkscape:connector-curvature="0"
   style="fill:#363b68" />
	<path
   class="st0"
   d="m 189.2,95 h -7.1 v 12.3 c 0,1.6 0.3,2.7 1,3.5 0.7,0.7 1.6,1.1 2.7,1.1 0.9,0 1.7,-0.1 2.2,-0.4 0.6,-0.3 1.1,-0.8 1.5,-1.4 l 0.3,0.1 c -0.2,0.5 -0.4,1 -0.8,1.5 -0.3,0.5 -0.8,1 -1.3,1.4 -0.5,0.4 -1.2,0.7 -1.9,1 -0.7,0.2 -1.6,0.4 -2.6,0.4 -0.7,0 -1.3,-0.1 -1.9,-0.3 -0.6,-0.2 -1.1,-0.5 -1.6,-0.9 -0.5,-0.4 -0.8,-0.8 -1.1,-1.3 -0.3,-0.5 -0.4,-1 -0.4,-1.5 0,-2.9 0,-5.7 0,-8.3 0,-2.6 0,-5 0,-7 h -3.4 v -0.5 l 6.7,-6.4 h 0.4 v 4.1 h 8.6 z"
   id="path18"
   inkscape:connector-curvature="0"
   style="fill:#363b68" />
	<path
   class="st0"
   d="m 203.8,114.2 v -0.5 c 0.8,-0.1 1.5,-0.2 2.1,-0.3 0.6,-0.1 0.8,-0.5 0.8,-1 v -11.7 c 0,-0.9 -0.1,-1.7 -0.2,-2.5 -0.1,-0.8 -0.4,-1.4 -0.7,-2 -0.3,-0.6 -0.8,-1 -1.3,-1.3 -0.6,-0.3 -1.3,-0.5 -2.1,-0.5 -1.1,0 -2.1,0.2 -2.9,0.6 -0.8,0.4 -1.4,1 -1.9,1.6 -0.1,0.1 -0.1,0.3 -0.3,0.6 -0.1,0.3 -0.2,0.6 -0.2,0.8 v 14.3 c 0,0.3 0.1,0.5 0.2,0.7 0.2,0.2 0.4,0.3 0.6,0.3 0.2,0.1 0.5,0.1 0.8,0.2 0.3,0 0.6,0.1 0.9,0.1 v 0.5 h -9.3 v -0.5 c 0.7,-0.1 1.4,-0.2 1.9,-0.4 0.6,-0.2 0.9,-0.6 0.9,-1.1 V 85.7 c 0,-0.2 0,-0.4 -0.1,-0.6 0,-0.1 -0.2,-0.3 -0.4,-0.4 -0.2,-0.2 -0.6,-0.4 -1,-0.6 -0.4,-0.2 -0.8,-0.4 -1.2,-0.7 v -0.3 l 6.3,-2.9 h 0.4 L 197,96.4 h 0.1 c 0.2,-0.4 0.6,-0.9 1,-1.5 0.4,-0.6 1,-1.1 1.7,-1.6 0.7,-0.5 1.5,-0.9 2.4,-1.3 0.9,-0.4 1.9,-0.5 2.9,-0.5 1,0 1.9,0.2 2.6,0.5 0.7,0.4 1.3,0.9 1.7,1.5 0.4,0.6 0.7,1.4 0.9,2.3 0.2,0.9 0.3,1.8 0.3,2.9 v 13.8 c 0,0.2 0.1,0.4 0.3,0.6 0.2,0.2 0.4,0.3 0.7,0.4 0.3,0.1 0.6,0.1 0.9,0.2 0.3,0 0.6,0.1 0.9,0.1 v 0.4 z"
   id="path20"
   inkscape:connector-curvature="0"
   style="fill:#363b68" />
	<path
   class="st0"
   d="m 233.3,109.4 c -0.4,0.9 -1,1.6 -1.8,2.4 -0.7,0.7 -1.6,1.3 -2.7,1.8 -1,0.5 -2.2,0.7 -3.5,0.7 -1.6,0 -3,-0.3 -4.3,-0.9 -1.3,-0.6 -2.4,-1.4 -3.3,-2.5 -0.9,-1.1 -1.6,-2.3 -2.1,-3.8 -0.5,-1.4 -0.7,-3 -0.7,-4.6 0,-1.3 0.2,-2.6 0.7,-3.9 0.5,-1.3 1.1,-2.5 2,-3.5 0.9,-1 1.9,-1.9 3.1,-2.5 1.2,-0.6 2.6,-1 4.1,-1 1.2,0 2.4,0.2 3.4,0.5 1.1,0.3 2,0.8 2.8,1.4 0.8,0.6 1.4,1.4 1.9,2.4 0.5,1 0.8,2.1 0.9,3.4 h -15 c 0,0.2 0,0.5 0,0.9 0,0.3 0,0.7 0,1 0,1.3 0.2,2.6 0.6,3.8 0.4,1.2 0.9,2.3 1.6,3.2 0.7,0.9 1.6,1.6 2.7,2.2 1.1,0.5 2.4,0.8 3.8,0.8 1.6,0 2.9,-0.4 4.1,-1.2 1.2,-0.8 1.9,-1.8 2.3,-2.9 l 0.4,0.1 c -0.3,0.6 -0.5,1.4 -1,2.2 z M 228,93.7 c -0.8,-0.8 -1.9,-1.2 -3.2,-1.2 -0.9,0 -1.7,0.3 -2.4,0.8 -0.7,0.5 -1.3,1.1 -1.8,1.8 -0.5,0.7 -0.9,1.4 -1.2,2.1 -0.3,0.7 -0.5,1.2 -0.5,1.6 0.7,0 1.4,0 1.9,0 0.5,0 1.1,0 1.7,0 0.5,0 1.1,0 1.7,0 0.6,0 1.2,0 2,0 0.5,0 0.9,0 1.3,0 0.4,0 0.8,-0.1 1.1,-0.2 0.2,-0.2 0.4,-0.5 0.5,-0.7 0.1,-0.2 0.2,-0.5 0.2,-1 -0.1,-1.4 -0.5,-2.4 -1.3,-3.2 z"
   id="path22"
   inkscape:connector-curvature="0"
   style="fill:#363b68" />
	<path
   class="st0"
   d="m 279.8,81.9 c -0.7,0.4 -1.2,1.1 -1.6,2 -0.1,0.2 -0.2,0.6 -0.3,1.1 -0.1,0.5 -0.1,1.1 -0.2,1.7 -0.1,0.7 -0.1,1.3 -0.1,2.1 0,0.7 0,1.5 0,2.2 0,1.3 -0.1,2.8 -0.1,4.5 0,1.7 -0.1,3.5 -0.2,5.6 0,0.6 -0.1,1.3 -0.1,2.2 0,0.9 -0.2,1.9 -0.4,2.9 -0.2,1 -0.6,2 -1.2,3 -0.5,1 -1.3,1.9 -2.3,2.8 -1,0.8 -2.3,1.5 -3.8,2 -1.6,0.5 -3.5,0.7 -5.7,0.7 -2.2,0 -4.1,-0.2 -5.7,-0.7 -1.5,-0.5 -2.8,-1.1 -3.8,-1.9 -1,-0.8 -1.8,-1.7 -2.3,-2.6 -0.5,-0.9 -1,-1.9 -1.2,-2.8 -0.3,-0.9 -0.4,-1.8 -0.5,-2.5 0,-0.8 -0.1,-1.3 -0.1,-1.7 0,-0.9 0,-2 0,-3.4 0,-1.4 0,-3 0,-4.7 v -6.2 c 0,-0.6 0,-1.1 0,-1.7 0,-0.6 0,-1.1 -0.1,-1.6 0,-0.5 -0.1,-0.9 -0.2,-1.3 -0.1,-0.4 -0.2,-0.7 -0.4,-0.9 -0.4,-0.5 -1,-0.9 -1.6,-1.1 -0.6,-0.2 -1.4,-0.4 -2.2,-0.5 v -0.5 h 13.9 v 0.5 c -0.4,0.1 -0.9,0.2 -1.4,0.3 -0.5,0.1 -0.9,0.3 -1.4,0.6 -0.4,0.3 -0.7,0.6 -1,1.1 -0.3,0.5 -0.4,1.1 -0.5,1.8 0,0.8 -0.1,1.5 -0.1,2.1 0,0.6 0,1.2 0,1.8 0,0.6 0,1.2 0,1.9 0,0.6 0,1.4 0,2.2 0,1.1 0,2 0,2.9 0,0.9 0,1.6 0,2.4 0,0.7 0,1.4 0,2.1 0,0.7 0,1.4 0,2.1 0,1.7 0.3,3.2 0.7,4.5 0.5,1.4 1.1,2.5 2,3.5 0.8,1 1.9,1.7 3.1,2.2 1.2,0.5 2.6,0.8 4.2,0.8 1.8,0 3.3,-0.2 4.5,-0.6 1.2,-0.4 2.3,-1 3.1,-1.7 0.8,-0.7 1.5,-1.5 2,-2.5 0.5,-0.9 0.8,-1.9 1.1,-3 0.2,-1.1 0.4,-2.1 0.5,-3.2 0.1,-1.1 0.1,-2.2 0.1,-3.2 0,-0.8 0,-1.6 0,-2.3 0,-0.7 0,-1.3 0,-1.9 0,-0.6 0,-1.2 0,-1.8 0,-0.6 0,-1.3 0,-1.9 0,-0.6 0,-1.3 0,-1.9 0,-0.7 0,-1.3 -0.1,-1.9 0,-0.6 -0.1,-1.1 -0.1,-1.7 -0.1,-0.5 -0.2,-0.9 -0.3,-1.2 -0.3,-0.9 -0.8,-1.6 -1.6,-2.1 -0.8,-0.5 -1.9,-0.9 -3.4,-1.1 v -0.5 h 11.6 v 0.5 c -1.2,-0.2 -2.1,0.1 -2.8,0.5 z"
   id="path24"
   inkscape:connector-curvature="0"
   style="fill:#363b68" />
	<path
   class="st0"
   d="m 297.4,114.2 v -0.5 c 0.8,-0.1 1.5,-0.2 2,-0.3 0.5,-0.1 0.7,-0.5 0.7,-1 v -11.8 c 0,-1.8 -0.3,-3.3 -1,-4.4 -0.7,-1.1 -1.8,-1.7 -3.5,-1.7 -1,0 -1.9,0.2 -2.6,0.7 -0.7,0.4 -1.4,1.1 -2.3,1.9 v 15.3 c 0.1,0.3 0.2,0.5 0.3,0.7 0.2,0.1 0.3,0.2 0.6,0.3 0.2,0.1 0.5,0.1 0.7,0.1 0.3,0 0.6,0.1 0.9,0.1 v 0.5 h -9 v -0.5 c 0.7,-0.1 1.3,-0.2 1.8,-0.4 0.5,-0.2 0.8,-0.6 0.8,-1.1 V 96.2 c 0,-0.2 0,-0.4 -0.1,-0.6 0,-0.1 -0.2,-0.3 -0.4,-0.4 -0.3,-0.2 -0.6,-0.3 -1,-0.5 -0.4,-0.2 -0.7,-0.4 -1.1,-0.5 v -0.3 l 6.1,-2.2 h 0.3 v 5 h 0.1 c 0.3,-0.5 0.8,-1.1 1.3,-1.7 0.5,-0.6 1.1,-1.2 1.7,-1.7 0.7,-0.5 1.4,-0.9 2.1,-1.2 0.8,-0.3 1.6,-0.5 2.4,-0.5 1.8,0 3.2,0.7 4.1,2 1,1.3 1.4,3.1 1.4,5.2 v 13.7 c 0,0.2 0.1,0.4 0.3,0.6 0.2,0.2 0.4,0.3 0.7,0.4 0.3,0.1 0.6,0.1 0.9,0.2 0.3,0 0.6,0.1 0.9,0.1 v 0.4 z"
   id="path26"
   inkscape:connector-curvature="0"
   style="fill:#363b68" />
	<path
   class="st0"
   d="m 308.2,114.2 v -0.5 c 0.4,0 0.7,-0.1 1.1,-0.1 0.4,0 0.7,-0.1 1,-0.2 0.3,-0.1 0.5,-0.3 0.7,-0.4 0.2,-0.2 0.3,-0.4 0.3,-0.7 v -16 c 0,-0.2 0,-0.5 -0.1,-0.7 0,-0.2 -0.2,-0.4 -0.4,-0.5 -0.3,-0.2 -0.6,-0.4 -1,-0.6 -0.4,-0.2 -0.8,-0.4 -1.2,-0.5 v -0.3 l 6.3,-2.1 h 0.3 v 20.9 c 0.1,0.3 0.2,0.5 0.4,0.7 0.2,0.1 0.4,0.2 0.7,0.3 0.3,0.1 0.6,0.1 0.9,0.1 0.3,0 0.6,0.1 1,0.1 v 0.5 z m 6.7,-28.1 c -0.5,0.5 -1.1,0.7 -1.8,0.7 -0.7,0 -1.3,-0.2 -1.8,-0.7 -0.5,-0.5 -0.7,-1.1 -0.7,-1.8 0,-0.7 0.2,-1.3 0.7,-1.8 0.5,-0.5 1.1,-0.7 1.8,-0.7 0.7,0 1.3,0.2 1.8,0.7 0.5,0.5 0.7,1.1 0.7,1.8 0,0.7 -0.2,1.3 -0.7,1.8 z"
   id="path28"
   inkscape:connector-curvature="0"
   style="fill:#363b68" />
	<path
   class="st0"
   d="m 341.4,107.3 c -0.6,1.4 -1.4,2.7 -2.4,3.7 -1,1.1 -2.2,1.9 -3.5,2.5 -1.3,0.6 -2.7,0.9 -4.2,0.9 -1.2,0 -2.5,-0.2 -3.8,-0.7 -1.3,-0.4 -2.5,-1.1 -3.6,-2.1 -1.1,-0.9 -2,-2.2 -2.7,-3.6 -0.7,-1.5 -1.1,-3.2 -1.1,-5.2 0,-1.4 0.3,-2.8 0.8,-4.2 0.5,-1.3 1.3,-2.5 2.3,-3.6 1,-1 2.2,-1.9 3.6,-2.5 1.4,-0.6 2.9,-0.9 4.6,-0.9 1.2,0 2.5,0.2 3.8,0.7 1.3,0.5 2.4,1.2 3.5,2.1 1,0.9 1.9,2.1 2.6,3.5 0.7,1.4 1,3 1,4.9 -0.1,1.6 -0.4,3.1 -0.9,4.5 z m -3.9,-8 c -0.2,-1.2 -0.6,-2.3 -1.1,-3.4 -0.5,-1 -1.2,-1.9 -2.1,-2.5 -0.9,-0.7 -1.9,-1 -3.2,-1 -1,0 -1.9,0.3 -2.8,0.9 -0.8,0.6 -1.5,1.4 -2.1,2.5 -0.6,1 -1,2.1 -1.3,3.4 -0.3,1.3 -0.4,2.5 -0.4,3.9 0,1.4 0.1,2.8 0.4,4.1 0.2,1.3 0.7,2.4 1.2,3.4 0.6,1 1.3,1.8 2.1,2.3 0.9,0.6 1.9,0.9 3.1,0.9 1.2,0 2.2,-0.4 3.1,-1.1 0.8,-0.7 1.5,-1.6 2,-2.8 0.5,-1.1 0.9,-2.3 1.1,-3.6 0.2,-1.3 0.4,-2.5 0.4,-3.6 0,-1 -0.1,-2.2 -0.4,-3.4 z"
   id="path30"
   inkscape:connector-curvature="0"
   style="fill:#363b68" />
	<path
   class="st0"
   d="m 357.5,114.2 v -0.5 c 0.8,-0.1 1.5,-0.2 2,-0.3 0.5,-0.1 0.7,-0.5 0.7,-1 v -11.8 c 0,-1.8 -0.3,-3.3 -1,-4.4 -0.7,-1.1 -1.8,-1.7 -3.5,-1.7 -1,0 -1.9,0.2 -2.6,0.7 -0.7,0.4 -1.4,1.1 -2.3,1.9 v 15.3 c 0.1,0.3 0.2,0.5 0.3,0.7 0.2,0.1 0.3,0.2 0.6,0.3 0.2,0.1 0.5,0.1 0.7,0.1 0.3,0 0.6,0.1 0.9,0.1 v 0.5 h -9 v -0.5 c 0.7,-0.1 1.3,-0.2 1.8,-0.4 0.5,-0.2 0.8,-0.6 0.8,-1.1 V 96.2 c 0,-0.2 0,-0.4 -0.1,-0.6 0,-0.1 -0.2,-0.3 -0.4,-0.4 -0.3,-0.2 -0.6,-0.3 -1,-0.5 -0.4,-0.2 -0.7,-0.4 -1.1,-0.5 v -0.3 l 6.1,-2.2 h 0.3 v 5 h 0.1 c 0.3,-0.5 0.8,-1.1 1.3,-1.7 0.5,-0.6 1.1,-1.2 1.7,-1.7 0.7,-0.5 1.4,-0.9 2.1,-1.2 0.8,-0.3 1.6,-0.5 2.4,-0.5 1.8,0 3.2,0.7 4.1,2 1,1.3 1.4,3.1 1.4,5.2 v 13.7 c 0,0.2 0.1,0.4 0.3,0.6 0.2,0.2 0.4,0.3 0.7,0.4 0.3,0.1 0.6,0.1 0.9,0.2 0.3,0 0.6,0.1 0.9,0.1 v 0.4 z"
   id="path32"
   inkscape:connector-curvature="0"
   style="fill:#363b68" />
	<path
   class="st0"
   d="m 211.1,138 c -0.7,0.4 -1.2,1.1 -1.6,2 -0.2,0.5 -0.4,1.3 -0.4,2.6 -0.1,1.3 -0.1,2.6 -0.2,4 -0.1,1.3 -0.1,2.9 -0.2,4.7 0,1.8 -0.1,3.8 -0.1,5.9 0,0.9 0,1.9 0,3 0,1.1 0,2.2 0,3.3 0,1.1 0,2.3 0,3.4 0,1.1 0,2.1 0,3 0,0.1 0,0.2 -0.1,0.3 -0.1,0.1 -0.2,0.1 -0.4,0.1 -0.2,0 -0.5,-0.2 -0.8,-0.5 -2.6,-3.1 -5.1,-5.9 -7.2,-8.4 -2.2,-2.6 -4.3,-5 -6.2,-7.3 -2,-2.3 -3.9,-4.6 -5.8,-6.8 -1.9,-2.2 -3.9,-4.5 -6,-6.9 v 19.7 c 0,1.6 0,3 0.1,4.3 0.1,1.3 0.3,2.2 0.6,2.8 0.3,0.7 0.9,1.3 1.6,1.6 0.7,0.4 1.7,0.6 3,0.8 v 0.5 h -11.5 v -0.5 c 0.7,-0.1 1.5,-0.3 2.2,-0.6 0.7,-0.3 1.3,-0.8 1.8,-1.5 0.4,-0.7 0.7,-1.6 0.8,-2.9 0.1,-1.3 0.2,-2.8 0.3,-4.6 0.1,-1.3 0.1,-2.9 0.1,-4.7 0,-1.8 0,-3.8 0,-5.9 0,-0.9 0,-1.7 0,-2.2 0,-0.6 0,-1.2 0,-1.7 0,-0.5 0,-1.1 0,-1.7 0,-0.6 0,-1.4 0,-2.3 -0.1,-0.9 -0.3,-1.6 -0.7,-2.2 -0.3,-0.6 -0.7,-1 -1.2,-1.4 -0.5,-0.3 -1,-0.6 -1.5,-0.7 -0.5,-0.1 -1.1,-0.2 -1.6,-0.3 v -0.5 h 9.5 l 22.1,25.9 v -15.9 c 0,-1.2 0,-2.4 0,-3.6 0,-1.1 -0.2,-2 -0.4,-2.7 -0.3,-0.9 -0.9,-1.6 -1.7,-2.1 -0.8,-0.5 -1.9,-0.9 -3.4,-1.1 v -0.5 h 11.6 v 0.5 c -1.1,0.4 -2,0.7 -2.7,1.1 z"
   id="path34"
   inkscape:connector-curvature="0"
   style="fill:#363b68" />
	<path
   class="st0"
   d="m 245.7,170.3 h -28.6 v -0.5 c 0.8,-0.1 1.5,-0.3 2.2,-0.6 0.7,-0.3 1.2,-0.7 1.7,-1.2 0.2,-0.2 0.3,-0.5 0.4,-0.8 0.1,-0.4 0.2,-0.8 0.3,-1.2 0.1,-0.5 0.1,-1 0.2,-1.5 0,-0.5 0,-1 0,-1.5 0,-0.4 0,-1 0,-1.8 0,-0.7 0,-1.6 0,-2.5 0,-0.9 0,-1.8 0,-2.7 0,-1 0,-1.9 0,-2.7 v -9.1 c 0,-0.6 0,-1.1 0,-1.7 0,-0.6 0,-1.2 -0.1,-1.7 -0.1,-0.5 -0.1,-1 -0.2,-1.4 -0.1,-0.4 -0.3,-0.7 -0.4,-0.9 -0.5,-0.5 -1,-0.8 -1.5,-1 -0.5,-0.1 -1.2,-0.3 -2.1,-0.4 v -0.5 h 25.8 l 3.2,7.7 -0.5,0.2 c -2.5,-3.1 -4.9,-5.3 -7.1,-6.4 -0.5,-0.2 -1.5,-0.5 -2.9,-0.7 -1.4,-0.2 -3.2,-0.3 -5.2,-0.3 -0.7,0 -1.3,0 -2,0.1 -0.7,0 -1.2,0.1 -1.5,0.2 -0.1,0.5 -0.1,1.5 -0.2,3.1 0,1.6 -0.1,3.4 -0.1,5.4 0,1.2 0,2.2 0,3 0,0.8 0,1.5 0,2 0,0.5 0,0.9 0,1.2 0,0.2 0,0.4 0,0.5 0.2,0 0.5,0 0.9,0 0.5,0 1,0 1.6,0 0.6,0 1.2,-0.1 1.8,-0.1 0.6,0 1.1,-0.1 1.5,-0.2 0.9,-0.2 1.7,-0.5 2.3,-0.9 0.6,-0.4 1.1,-0.8 1.5,-1.4 0.4,-0.5 0.7,-1.1 0.9,-1.8 0.2,-0.7 0.4,-1.5 0.6,-2.4 h 0.6 v 14.7 h -0.6 c -0.2,-1 -0.6,-2 -1.1,-3.1 -0.5,-1.1 -1.1,-1.9 -1.6,-2.4 -0.5,-0.4 -1.1,-0.8 -1.8,-1.1 -0.7,-0.3 -1.5,-0.5 -2.5,-0.5 -0.5,0 -0.9,-0.1 -1.2,-0.1 -0.3,0 -0.6,0 -0.9,0 -0.3,0 -0.6,0 -0.9,0 -0.3,0 -0.7,0 -1.2,0 -0.1,0.4 -0.1,1.1 -0.1,1.9 0,0.8 0,1.7 0,2.6 0,0.4 0,0.9 0,1.4 0,0.5 0,1.1 0,1.6 0,0.5 0,1 0,1.4 0,0.5 0,0.8 0,1.1 0,1 0.1,1.9 0.2,2.8 0.1,0.9 0.3,1.6 0.5,2 0.3,0.4 0.9,0.7 2,0.9 1.1,0.2 2.2,0.3 3.5,0.3 0.5,0 1.2,0 2,0 0.8,0 1.7,-0.1 2.6,-0.2 1,-0.1 1.9,-0.4 2.8,-0.7 0.8,-0.4 1.7,-0.9 2.4,-1.5 0.8,-0.7 1.5,-1.5 2.3,-2.4 0.7,-0.9 1.5,-2.1 2.3,-3.4 l 0.5,0.1 z"
   id="path36"
   inkscape:connector-curvature="0"
   style="fill:#363b68" />
	<path
   class="st0"
   d="m 294.1,137.8 c -0.5,0.3 -0.9,0.6 -1,0.7 -0.1,0.1 -0.2,0.2 -0.4,0.5 -0.2,0.2 -0.4,0.5 -0.7,0.9 -0.2,0.4 -0.5,0.9 -0.8,1.5 -0.3,0.6 -0.6,1.4 -0.9,2.3 -0.5,1.5 -1.1,3.2 -1.7,5.1 -0.7,1.9 -1.3,3.8 -2,5.7 -0.7,2 -1.3,3.9 -2,5.9 -0.7,2 -1.3,3.9 -1.9,5.6 l -2,4.5 h -0.5 c -0.8,-2.2 -1.6,-4.4 -2.4,-6.4 -0.7,-2.1 -1.4,-4 -2.1,-5.9 -0.7,-1.9 -1.3,-3.7 -1.9,-5.5 -0.6,-1.8 -1.3,-3.6 -1.9,-5.3 -0.5,1.4 -1,2.9 -1.6,4.5 -0.6,1.6 -1.1,3.2 -1.7,4.8 -0.6,1.6 -1.1,3.2 -1.7,4.8 -0.6,1.6 -1.1,3.1 -1.6,4.6 l -2.1,4.6 h -0.6 c -1,-2.5 -1.9,-4.9 -2.7,-7.2 -0.9,-2.3 -1.7,-4.5 -2.5,-6.6 -0.8,-2.1 -1.6,-4.1 -2.3,-6.1 -0.7,-2 -1.5,-3.9 -2.2,-5.9 -0.2,-0.6 -0.4,-1.1 -0.6,-1.5 -0.2,-0.4 -0.3,-0.8 -0.5,-1.2 -0.2,-0.4 -0.3,-0.7 -0.4,-1.1 -0.2,-0.3 -0.3,-0.7 -0.5,-1.1 -0.1,-0.2 -0.2,-0.4 -0.4,-0.7 -0.2,-0.3 -0.4,-0.6 -0.7,-0.8 -0.3,-0.3 -0.7,-0.5 -1.1,-0.7 -0.4,-0.2 -1,-0.3 -1.7,-0.4 v -0.5 h 13.2 v 0.5 c -0.2,0 -0.4,0 -0.8,0.1 -0.4,0.1 -0.8,0.2 -1.2,0.3 -0.4,0.2 -0.8,0.4 -1.1,0.7 -0.3,0.3 -0.4,0.7 -0.4,1.3 0,0.3 0.2,0.9 0.5,1.9 0.3,1 0.8,2.2 1.3,3.7 0.5,1.4 1.1,3 1.8,4.7 0.6,1.7 1.3,3.4 1.9,5.1 0.6,1.7 1.2,3.2 1.8,4.7 0.6,1.4 1,2.6 1.4,3.6 0.1,-0.2 0.3,-0.9 0.7,-1.9 0.4,-1 0.8,-2.4 1.4,-3.9 0.6,-1.5 1.2,-3.3 1.9,-5.3 0.7,-2 1.4,-4 2.1,-6.2 -0.5,-1.2 -0.9,-2.3 -1.3,-3.3 -0.4,-0.9 -0.8,-1.9 -1.2,-2.8 -0.1,-0.2 -0.3,-0.5 -0.5,-0.8 -0.2,-0.3 -0.5,-0.6 -0.8,-0.8 -0.4,-0.3 -0.8,-0.5 -1.3,-0.7 -0.5,-0.2 -1.2,-0.3 -1.9,-0.3 V 137 H 279 v 0.5 c -0.2,0 -0.5,0.1 -1,0.1 -0.5,0.1 -1,0.2 -1.4,0.4 -0.5,0.2 -0.9,0.4 -1.3,0.7 -0.4,0.3 -0.6,0.7 -0.6,1.2 0,0.2 0.2,0.8 0.5,1.9 0.3,1.1 0.8,2.4 1.3,3.9 0.5,1.5 1.1,3.2 1.8,5 0.7,1.8 1.3,3.5 1.9,5.2 0.6,1.7 1.1,3.2 1.6,4.5 0.5,1.3 0.8,2.3 1.1,2.9 0.1,-0.2 0.3,-0.7 0.5,-1.4 0.2,-0.7 0.5,-1.6 0.9,-2.6 0.4,-1 0.7,-2.1 1.2,-3.4 0.4,-1.2 0.8,-2.5 1.3,-3.8 0.4,-1.3 0.8,-2.6 1.3,-3.9 0.4,-1.3 0.8,-2.5 1.1,-3.6 0.4,-1.4 0.7,-2.5 0.7,-3.1 0.1,-0.7 0.1,-1.1 0.1,-1.4 0,-0.5 -0.1,-0.8 -0.4,-1.1 -0.3,-0.3 -0.6,-0.5 -1,-0.7 -0.4,-0.2 -0.8,-0.4 -1.3,-0.5 -0.5,-0.1 -0.9,-0.2 -1.3,-0.2 v -0.5 h 10.3 v 0.5 c -1,-0.4 -1.6,-0.2 -2.2,0.2 z"
   id="path38"
   inkscape:connector-curvature="0"
   style="fill:#363b68" />
	<path
   class="st0"
   d="m 319.9,165.1 c -0.6,1.2 -1.4,2.2 -2.5,3 -1.1,0.8 -2.4,1.5 -3.9,1.9 -1.5,0.4 -3.1,0.6 -4.9,0.6 -1.5,0 -2.8,-0.1 -3.9,-0.3 -1.1,-0.2 -2,-0.4 -2.7,-0.7 -0.7,-0.3 -1.3,-0.5 -1.6,-0.7 -0.4,-0.2 -0.6,-0.3 -0.7,-0.3 -0.1,0 -0.3,0.2 -0.6,0.6 -0.3,0.4 -0.6,0.7 -0.8,1.1 h -0.4 l -0.1,-9.3 h 0.5 c 0.3,0.8 0.6,1.7 1.1,2.5 0.4,0.8 0.9,1.5 1.4,2.2 0.5,0.7 1.1,1.3 1.6,1.8 0.6,0.5 1.1,0.9 1.7,1.2 0.5,0.3 1.2,0.6 2.1,0.8 0.9,0.3 1.7,0.4 2.5,0.4 2.3,0 4.2,-0.6 5.6,-1.9 1.4,-1.3 2.1,-3 2.1,-5.1 0,-0.9 -0.1,-1.6 -0.4,-2.3 -0.3,-0.7 -0.7,-1.2 -1.1,-1.7 -0.5,-0.5 -1.1,-0.9 -1.7,-1.2 -0.7,-0.3 -1.4,-0.7 -2.1,-0.9 -0.7,-0.3 -1.4,-0.5 -2,-0.7 -0.6,-0.2 -1.1,-0.4 -1.6,-0.5 -0.5,-0.2 -1,-0.3 -1.5,-0.5 -0.5,-0.2 -1.1,-0.4 -1.8,-0.7 -0.8,-0.3 -1.6,-0.7 -2.3,-1.3 -0.7,-0.5 -1.4,-1.2 -2,-1.9 -0.6,-0.7 -1,-1.5 -1.4,-2.4 -0.3,-0.9 -0.5,-1.8 -0.5,-2.8 0,-1.7 0.3,-3.1 0.9,-4.3 0.6,-1.2 1.4,-2.2 2.5,-3 1,-0.8 2.2,-1.4 3.6,-1.8 1.4,-0.4 2.8,-0.6 4.3,-0.6 1.4,0 2.6,0.1 3.6,0.3 1,0.2 1.8,0.5 2.5,0.8 0.6,0.3 1.1,0.5 1.4,0.8 0.3,0.2 0.5,0.4 0.5,0.4 0.1,0 0.3,-0.2 0.6,-0.6 0.3,-0.4 0.6,-0.7 0.8,-1.1 h 0.5 v 8.6 h -0.5 c -0.4,-1 -0.9,-2 -1.4,-3.1 -0.6,-1 -1.3,-1.9 -2.1,-2.7 -0.8,-0.8 -1.7,-1.4 -2.7,-1.9 -1,-0.5 -2.1,-0.7 -3.3,-0.7 -1,0 -1.9,0.1 -2.7,0.4 -0.9,0.3 -1.6,0.7 -2.2,1.3 -0.6,0.6 -1.1,1.3 -1.5,2.1 -0.4,0.8 -0.5,1.8 -0.5,2.8 0,1.7 0.5,3 1.5,4 1,1 2.3,1.8 3.9,2.4 0.6,0.2 1.2,0.5 1.7,0.7 0.5,0.2 1.1,0.4 1.6,0.5 0.5,0.2 1.1,0.4 1.6,0.5 0.5,0.2 1.1,0.4 1.7,0.6 2.1,0.8 3.8,1.9 4.9,3.4 1.2,1.5 1.7,3.3 1.7,5.5 -0.1,1.3 -0.4,2.6 -1,3.8 z"
   id="path40"
   inkscape:connector-curvature="0"
   style="fill:#363b68" />
</g>
<circle
   class="st0"
   cx="60"
   cy="59.700001"
   r="59.700001"
   id="circle44"
   style="fill:#363b68" />
<path
   class="st1"
   d="m 61.1,29.199999 9.1,18.5 c 0.2,0.4 0.5,0.6 0.9,0.7 l 20.5,3 c 1,0.1 1.4,1.4 0.7,2.1 l -14.8,14.4 c -0.3,0.3 -0.4,0.7 -0.4,1.1 l 3.5,20.4 c 0.2,1 -0.9,1.8 -1.8,1.3 l -18.2,-9.6 c -0.4,-0.2 -0.8,-0.2 -1.2,0 l -18.3,9.6 c -0.9,0.5 -2,-0.3 -1.8,-1.3 l 3.5,-20.4 c 0.1,-0.4 -0.1,-0.8 -0.4,-1.1 l -14.7,-14.4 c -0.7,-0.7 -0.3,-2 0.7,-2.1 l 20.5,-3 c 0.4,-0.1 0.8,-0.3 0.9,-0.7 l 9.1,-18.5 c 0.4,-0.9 1.8,-0.9 2.2,0 z"
   id="path46"
   inkscape:connector-curvature="0"
   style="fill:#ffffff" />
<rect
   x="0"
   y="163.60001"
   class="st2"
   width="345.79999"
   height="13.1"
   id="rect48"
   style="fill:#bb3528" />
<rect
   x="0"
   y="133.60001"
   class="st1"
   width="120"
   height="13.3"
   id="rect50"
   style="fill:#ffffff" />
</svg>