<?xml version="1.0" encoding="UTF-8" standalone="no"?>
<!-- Creator: CorelDRAW X7 -->

<svg
   xmlns:dc="http://purl.org/dc/elements/1.1/"
   xmlns:cc="http://creativecommons.org/ns#"
   xmlns:rdf="http://www.w3.org/1999/02/22-rdf-syntax-ns#"
   xmlns:svg="http://www.w3.org/2000/svg"
   xmlns="http://www.w3.org/2000/svg"
   xmlns:sodipodi="http://sodipodi.sourceforge.net/DTD/sodipodi-0.dtd"
   xmlns:inkscape="http://www.inkscape.org/namespaces/inkscape"
   xml:space="preserve"
   width="10.099616in"
   height="3.5250878in"
   version="1.0"
   viewBox="0 0 1009962.5 352508.77"
   id="svg22"
   sodipodi:docname="theglobaljobsbank-logo-b17-svg_cropped.svg"
   style="clip-rule:evenodd;fill-rule:evenodd;image-rendering:optimizeQuality;shape-rendering:geometricPrecision;text-rendering:geometricPrecision"
   inkscape:version="0.92.3 (2405546, 2018-03-11)"><metadata
   id="metadata28"><rdf:RDF><cc:Work
       rdf:about=""><dc:format>image/svg+xml</dc:format><dc:type
         rdf:resource="http://purl.org/dc/dcmitype/StillImage" /></cc:Work></rdf:RDF></metadata><defs
   id="defs26" /><sodipodi:namedview
   pagecolor="#ffffff"
   bordercolor="#666666"
   borderopacity="1"
   objecttolerance="10"
   gridtolerance="10"
   guidetolerance="10"
   inkscape:pageopacity="0"
   inkscape:pageshadow="2"
   inkscape:window-width="640"
   inkscape:window-height="480"
   id="namedview24"
   showgrid="false"
   inkscape:zoom="0.29734114"
   inkscape:cx="417.88286"
   inkscape:cy="40.809577"
   inkscape:window-x="0"
   inkscape:window-y="0"
   inkscape:window-maximized="0"
   inkscape:current-layer="svg22" />
 <g
   id="Layer_x0020_2"
   transform="translate(-149350.48,-103387.3)">
  <metadata
   id="CorelCorpID_0Corel-Layer" />
  <path
   d="m 160604,417925 c 2270,1622 6085,3408 11439,5354 5357,1949 11522,2921 18498,2921 6816,0 12253,-1176 16309,-3529 4058,-2353 7139,-5964 9249,-10831 2110,-4870 3491,-10915 4139,-18134 651,-7221 975,-15702 975,-25435 v -87629 h 33589 v 87629 c 0,13141 -688,25110 -2067,35902 -1381,10791 -4302,20000 -8765,27627 -4463,7628 -10911,13549 -19350,17768 -8438,4219 -19796,6328 -34079,6328 -14603,0 -27097,-3568 -37484,-10707 z m 342477,37728 c -9736,0 -18418,-2190 -26045,-6572 -7627,-4380 -13631,-10385 -18011,-18012 v 22151 H 430543 V 275528 h 32618 v 72539 c 4546,-7791 10508,-13836 17891,-18135 7383,-4299 15945,-6449 25681,-6449 8275,0 15862,1783 22758,5354 6896,3569 12820,8358 17768,14360 4950,6005 8765,13064 11441,21179 2678,8114 4016,16632 4016,25557 0,9250 -1502,17851 -4503,25802 -3000,7951 -7180,14887 -12537,20812 -5354,5921 -11682,10588 -18985,13996 -7300,3407 -15171,5110 -23610,5110 z m -9005,-27748 c 5191,0 9937,-1014 14239,-3044 4300,-2026 8031,-4746 11196,-8154 3164,-3408 5597,-7384 7303,-11927 1703,-4543 2556,-9412 2556,-14603 0,-5194 -811,-10144 -2436,-14850 -1622,-4706 -3935,-8842 -6936,-12413 -3001,-3569 -6532,-6409 -10588,-8519 -4058,-2109 -8521,-3164 -13388,-3164 -7303,0 -13835,2393 -19593,7180 -5761,4786 -10184,10671 -13268,17647 v 30428 c 1138,3244 2800,6165 4990,8762 2193,2597 4666,4826 7423,6693 2761,1865 5761,3327 9009,4382 3245,1055 6409,1582 9493,1582 z m -151646,27748 c -10384,0 -19716,-1786 -27991,-5354 -8278,-3571 -15294,-8398 -21055,-14483 -5762,-6085 -10184,-13105 -13268,-21055 -3081,-7951 -4623,-16309 -4623,-25071 0,-8925 1542,-17364 4623,-25314 3084,-7951 7506,-14971 13268,-21056 5761,-6085 12777,-10914 21055,-14483 8275,-3571 17607,-5354 27991,-5354 10385,0 19677,1783 27872,5354 8194,3569 15170,8398 20931,14483 5761,6085 10184,13105 13268,21056 3081,7950 4623,16389 4623,25314 0,8762 -1542,17120 -4623,25071 -3084,7950 -7466,14970 -13144,21055 -5681,6085 -12657,10912 -20935,14483 -8275,3568 -17607,5354 -27992,5354 z m -33348,-65963 c 0,5678 854,10831 2557,15458 1705,4622 4055,8638 7059,12046 3001,3408 6532,6045 10588,7911 4055,1865 8438,2800 13144,2800 4707,0 9086,-935 13145,-2800 4055,-1866 7587,-4503 10588,-7911 3000,-3408 5354,-7464 7059,-12170 1702,-4706 2557,-9900 2557,-15578 0,-5517 -855,-10627 -2557,-15334 -1705,-4706 -4059,-8765 -7059,-12170 -3001,-3408 -6533,-6045 -10588,-7914 -4059,-1865 -8438,-2797 -13145,-2797 -4706,0 -9089,975 -13144,2921 -4056,1946 -7587,4623 -10588,8031 -3004,3408 -5354,7466 -7059,12173 -1703,4703 -2557,9816 -2557,15334 z"
   id="path3"
   inkscape:connector-curvature="0"
   style="fill:#16b0f8" />
 </g>
 <g
   id="Layer_x0020_3"
   transform="translate(-149350.48,-103387.3)">
  <metadata
   id="CorelCorpID_1Corel-Layer" />
  <path
   d="m 727263,408676 c 0,7303 -1462,13712 -4383,19229 -2921,5517 -6936,10141 -12047,13876 -5113,3731 -11035,6572 -17770,8518 -6733,1946 -13916,2921 -21543,2921 H 588030 V 280398 h 92496 c 6005,0 11442,1299 16309,3896 4870,2596 9008,5961 12417,10100 3404,4139 6041,8845 7910,14119 1866,5274 2797,10588 2797,15942 0,8438 -2109,16349 -6328,23732 -4219,7383 -10385,12861 -18499,16432 9900,2921 17728,8155 23489,15698 5761,7547 8642,17000 8642,28359 z m 397242,44544 -36997,-55255 -17527,17283 v 37972 h -32617 V 275528 h 32617 v 107833 l 51116,-57444 h 34808 l -47709,54037 51117,73266 z m -115133,0 h -32614 v -71564 c 0,-10221 -1786,-17687 -5357,-22394 -3568,-4706 -8518,-7056 -14847,-7056 -3245,0 -6573,647 -9980,1946 -3408,1298 -6613,3124 -9613,5477 -3004,2353 -5722,5151 -8155,8398 -2436,3245 -4219,6813 -5357,10708 v 74485 H 890831 V 325673 h 29454 v 23609 c 4706,-8111 11522,-14440 20447,-18986 8926,-4543 18986,-6813 30181,-6813 7954,0 14443,1459 19474,4380 5030,2920 8925,6735 11685,11442 2758,4703 4663,10060 5718,16065 1055,6002 1582,12087 1582,18255 z m -224181,2433 c -6165,0 -11926,-1015 -17280,-3041 -5354,-2029 -9980,-4870 -13875,-8521 -3895,-3652 -6936,-7911 -9126,-12778 -2193,-4870 -3288,-10224 -3288,-16065 0,-6005 1339,-11563 4016,-16673 2680,-5113 6412,-9453 11198,-13024 4787,-3568 10508,-6369 17160,-8398 6652,-2026 13956,-3041 21907,-3041 5680,0 11238,487 16672,1459 5438,974 10264,2353 14483,4139 v -7303 c 0,-8438 -2393,-14927 -7180,-19474 -4786,-4542 -11886,-6815 -21298,-6815 -6816,0 -13469,1218 -19958,3651 -6492,2437 -13144,6005 -19960,10711 l -9980,-20691 c 16389,-10872 34076,-16306 53062,-16306 18338,0 32577,4503 42718,13509 10144,9005 15214,22027 15214,39066 v 39677 c 0,3408 650,5841 1949,7300 1298,1462 3568,2273 6816,2437 v 27748 c -3084,647 -5965,1094 -8642,1338 -2677,244 -4990,364 -6939,364 -6165,-161 -10871,-1582 -14116,-4259 -3248,-2677 -5274,-6289 -6085,-10832 l -731,-7059 c -5681,7467 -12577,13144 -20691,17039 -8111,3896 -16793,5842 -26046,5842 z m 9253,-23853 c 5517,0 10748,-974 15698,-2920 4950,-1949 8805,-4546 11562,-7791 3572,-2757 5354,-5841 5354,-9249 v -14607 c -3892,-1458 -8111,-2636 -12657,-3527 -4543,-892 -8925,-1339 -13144,-1339 -8438,0 -15335,1906 -20688,5721 -5355,3812 -8035,8642 -8035,14483 0,5518 2110,10100 6329,13752 4219,3651 9413,5477 15581,5477 z M 693427,402347 c 0,-3084 -527,-6045 -1583,-8885 -1054,-2841 -2473,-5314 -4259,-7424 -1782,-2109 -3892,-3771 -6328,-4990 -2433,-1218 -5111,-1826 -8031,-1826 h -51604 v 45519 h 49898 c 3084,0 5965,-568 8642,-1706 2677,-1135 4990,-2717 6936,-4746 1949,-2026 3491,-4420 4626,-7180 1135,-2757 1703,-5678 1703,-8762 z m -71805,-93227 v 43570 h 44788 c 5678,0 10508,-1946 14483,-5842 3976,-3895 5964,-9249 5964,-16065 0,-6652 -1825,-11926 -5477,-15821 -3651,-3895 -8154,-5842 -13511,-5842 z"
   id="path7"
   inkscape:connector-curvature="0"
   style="fill:#000000" />
 </g>
 <g
   id="Layer_x0020_4"
   transform="translate(-149350.48,-103387.3)">
  <metadata
   id="CorelCorpID_2Corel-Layer" />
  <path
   d="M 156500,327400 C 87795,45705 532212,53533 720942,219100 599720,149516 469223,108965 314095,145502 207736,177699 153434,237396 156500,327400 Z"
   id="path11"
   inkscape:connector-curvature="0"
   style="fill:#16b0f8" />
 </g>
 <g
   id="Layer_x0020_5"
   transform="translate(-149350.48,-103387.3)">
  <metadata
   id="CorelCorpID_3Corel-Layer" />
  <path
   d="m 736608,197906 44072,69373 -76004,-25210 c 18925,-4197 30820,-17327 31932,-44163 z"
   id="path15"
   inkscape:connector-curvature="0"
   style="fill:#000000" />
 </g>
 <g
   id="Layer_x0020_6"
   transform="translate(-149350.48,-103387.3)">
  <metadata
   id="CorelCorpID_4Corel-Layer" />
  <path
   d="m 306127,204921 h -11984 v 31723 h -11455 v -31723 h -12047 v -9990 h 35486 z m 41068,-9990 v 41713 h -11457 v -16333 h -13981 v 16333 h -11457 v -41713 h 11457 v 15393 h 13981 v -15393 z m 36896,31726 v 9987 h -29728 v -41713 h 29197 v 9990 h -17740 v 5872 h 15156 v 9283 h -15156 v 6581 z m 44531,6579 c -2625,2468 -5659,3701 -9107,3701 -2585,0 -5034,-577 -7344,-1733 -2310,-1154 -4339,-2711 -6082,-4670 -1742,-1958 -3120,-4240 -4141,-6843 -1018,-2606 -1527,-5358 -1527,-8256 0,-2937 518,-5669 1557,-8195 1037,-2526 2468,-4719 4291,-6581 1819,-1860 3962,-3328 6430,-4405 2467,-1076 5113,-1615 7932,-1615 1761,0 3448,206 5052,616 1607,410 3093,1018 4466,1820 1369,805 2594,1764 3670,2881 1079,1116 1970,2377 2674,3790 l -8519,6520 c -703,-1644 -1773,-2967 -3201,-3966 -1431,-1000 -2948,-1500 -4552,-1500 -1175,0 -2264,275 -3263,824 -996,549 -1860,1314 -2585,2291 -724,981 -1292,2144 -1702,3495 -410,1354 -617,2831 -617,4438 0,1644 207,3133 617,4463 410,1332 990,2479 1733,3438 744,960 1635,1703 2674,2233 1037,527 2184,793 3436,793 1409,0 2769,-355 4083,-1058 1311,-706 2535,-1724 3670,-3056 h -7343 v -8226 h 17157 v 22209 h -9459 z m 15097,3408 v -41713 h 11457 v 31726 h 18915 v 9987 z m 51406,352 c -2977,0 -5690,-608 -8139,-1820 -2446,-1215 -4543,-2809 -6286,-4790 -1742,-1977 -3093,-4237 -4052,-6785 -959,-2544 -1441,-5169 -1441,-7870 0,-2742 500,-5388 1499,-7933 1000,-2547 2400,-4789 4201,-6726 1801,-1940 3926,-3485 6375,-4642 2446,-1156 5138,-1733 8077,-1733 2976,0 5690,608 8136,1823 2449,1212 4543,2819 6285,4817 1746,1996 3088,4269 4025,6813 941,2547 1410,5150 1410,7815 0,2742 -497,5376 -1496,7902 -999,2526 -2381,4758 -4142,6695 -1764,1940 -3877,3497 -6347,4673 -2467,1174 -5169,1761 -8105,1761 z m -8284,-21148 c 0,1409 166,2769 500,4083 333,1311 851,2477 1557,3495 703,1017 1585,1841 2643,2467 1058,626 2291,940 3701,940 1449,0 2702,-324 3760,-968 1057,-648 1918,-1489 2584,-2529 666,-1036 1166,-2221 1499,-3553 333,-1332 499,-2683 499,-4052 0,-1413 -175,-2773 -530,-4084 -352,-1314 -870,-2467 -1554,-3466 -688,-1000 -1558,-1801 -2616,-2409 -1058,-607 -2291,-913 -3701,-913 -1449,0 -2692,315 -3731,941 -1037,626 -1900,1459 -2585,2498 -685,1036 -1193,2211 -1526,3525 -334,1311 -500,2653 -500,4025 z m 68797,10104 c 0,1881 -392,3494 -1175,4848 -783,1350 -1863,2457 -3232,3318 -1373,861 -2967,1499 -4790,1909 -1819,410 -3750,617 -5785,617 h -20504 v -41713 h 24204 c 1450,0 2761,315 3936,941 1175,626 2174,1440 2997,2439 824,997 1459,2135 1909,3406 451,1273 676,2575 676,3907 0,1958 -500,3828 -1499,5610 -996,1783 -2495,3124 -4494,4025 2391,706 4281,1930 5669,3673 1391,1742 2088,4083 2088,7020 z m -11633,-2351 c 0,-1018 -275,-1869 -824,-2557 -549,-684 -1252,-1026 -2115,-1026 h -9456 v 6991 h 9046 c 940,0 1733,-293 2380,-882 645,-586 969,-1428 969,-2526 z m -12395,-18918 v 6406 h 7812 c 783,0 1498,-216 2143,-648 648,-432 972,-1292 972,-2584 0,-1135 -275,-1949 -824,-2440 -549,-487 -1193,-734 -1940,-734 z m 24204,31961 15568,-41713 h 9281 l 15509,41713 h -12102 l -2526,-8167 h -11102 l -2468,8167 z m 20207,-29787 -3877,13984 h 7581 z m 23266,29787 v -41713 h 11458 v 31726 h 18915 v 9987 z"
   id="path19"
   inkscape:connector-curvature="0"
   style="fill:#000000" />
 </g>
</svg>