<?xml version="1.0" encoding="UTF-8" standalone="no"?>
<!-- Creator: CorelDRAW X7 -->

<svg
   xmlns:dc="http://purl.org/dc/elements/1.1/"
   xmlns:cc="http://creativecommons.org/ns#"
   xmlns:rdf="http://www.w3.org/1999/02/22-rdf-syntax-ns#"
   xmlns:svg="http://www.w3.org/2000/svg"
   xmlns="http://www.w3.org/2000/svg"
   xmlns:sodipodi="http://sodipodi.sourceforge.net/DTD/sodipodi-0.dtd"
   xmlns:inkscape="http://www.inkscape.org/namespaces/inkscape"
   xml:space="preserve"
   width="9.981101in"
   height="2.6429374in"
   version="1.0"
   viewBox="0 0 998110.98 264293.74"
   id="svg14"
   sodipodi:docname="themarketingcommunicator-logo-b11-svg Replacement_cropped.svg"
   style="clip-rule:evenodd;fill-rule:evenodd;image-rendering:optimizeQuality;shape-rendering:geometricPrecision;text-rendering:geometricPrecision"
   inkscape:version="0.92.3 (2405546, 2018-03-11)"><metadata
   id="metadata20"><rdf:RDF><cc:Work
       rdf:about=""><dc:format>image/svg+xml</dc:format><dc:type
         rdf:resource="http://purl.org/dc/dcmitype/StillImage" /></cc:Work></rdf:RDF></metadata><defs
   id="defs18" /><sodipodi:namedview
   pagecolor="#ffffff"
   bordercolor="#666666"
   borderopacity="1"
   objecttolerance="10"
   gridtolerance="10"
   guidetolerance="10"
   inkscape:pageopacity="0"
   inkscape:pageshadow="2"
   inkscape:window-width="640"
   inkscape:window-height="480"
   id="namedview16"
   showgrid="false"
   inkscape:zoom="0.29734114"
   inkscape:cx="479.09286"
   inkscape:cy="-80.857829"
   inkscape:window-x="0"
   inkscape:window-y="0"
   inkscape:window-maximized="0"
   inkscape:current-layer="svg14" />
 <g
   id="Layer_x0020_2"
   transform="translate(-85590,-64865.413)">
  <metadata
   id="CorelCorpID_0Corel-Layer" />
  <path
   d="m 128833,296802 h -6148 c -92,-1425 -468,-2719 -1118,-3886 -659,-1165 -1530,-2155 -2615,-2967 -1082,-824 -2353,-1446 -3812,-1882 -1474,-438 -3028,-661 -4686,-661 -2286,0 -4346,401 -6182,1201 -1850,812 -3426,1980 -4722,3521 -1306,1529 -2308,3439 -3004,5722 -704,2283 -1057,4897 -1057,7830 0,2942 353,5544 1057,7806 696,2262 1686,4168 2970,5734 1281,1554 2835,2743 4662,3555 1835,812 3873,1226 6132,1226 3570,0 6466,-861 8655,-2581 2203,-1716 3451,-4201 3720,-7450 h 6148 c -211,2412 -803,4554 -1802,6427 -990,1860 -2283,3451 -3898,4744 -1612,1296 -3509,2299 -5664,2979 -2167,696 -4520,1039 -7052,1039 -3248,0 -6169,-555 -8771,-1661 -2602,-1094 -4827,-2660 -6653,-4698 -1836,-2038 -3249,-4509 -4239,-7408 -990,-2905 -1483,-6144 -1483,-9712 0,-3555 505,-6794 1508,-9702 999,-2897 2412,-5370 4251,-7405 1823,-2038 4039,-3604 6640,-4723 2612,-1118 5520,-1670 8747,-1670 2415,0 4698,340 6841,1036 2142,693 4039,1682 5688,2979 1648,1281 2979,2825 4027,4627 1036,1800 1649,3792 1860,5980 z m 70160,-14551 c 3120,0 6019,564 8667,1682 2660,1131 4944,2722 6865,4757 1919,2050 3427,4511 4496,7395 1085,2884 1624,6086 1624,9595 0,3473 -527,6642 -1587,9513 -1061,2875 -2544,5357 -4475,7429 -1930,2084 -4226,3699 -6864,4827 -2649,1143 -5557,1710 -8726,1710 -3190,0 -6120,-567 -8771,-1686 -2660,-1130 -4943,-2718 -6865,-4780 -1918,-2060 -3414,-4533 -4483,-7429 -1073,-2897 -1604,-6087 -1604,-9584 0,-3533 543,-6745 1625,-9644 1073,-2897 2593,-5367 4533,-7405 1942,-2050 4229,-3625 6865,-4722 2626,-1107 5535,-1658 8700,-1658 z m -46,41750 c 2250,0 4334,-423 6240,-1260 1909,-836 3555,-2037 4934,-3616 1376,-1566 2449,-3484 3227,-5743 763,-2262 1152,-4830 1152,-7689 0,-2921 -389,-5499 -1176,-7748 -779,-2249 -1848,-4156 -3228,-5722 -1363,-1554 -2990,-2734 -4872,-3546 -1885,-799 -3935,-1201 -6148,-1201 -2225,0 -4309,414 -6240,1238 -1930,825 -3579,2026 -4946,3580 -1376,1566 -2449,3472 -3224,5721 -791,2250 -1177,4803 -1177,7678 0,2859 377,5427 1140,7689 754,2259 1827,4177 3202,5743 1380,1579 3016,2780 4898,3616 1885,837 3956,1260 6218,1260 z m 114764,4379 h -5725 v -38560 l -12960,38560 h -5382 l -13022,-38560 v 38560 h -5651 v -45354 h 9028 l 12305,37797 12376,-37797 h 9031 z m 95101,0 h -5725 v -38560 l -12961,38560 h -5382 l -13021,-38560 v 38560 h -5652 v -45354 h 9029 l 12305,37797 12375,-37797 h 9032 z m 70184,779 c -2838,0 -5228,-285 -7168,-849 -1955,-564 -3592,-1318 -4922,-2283 -1321,-966 -2369,-2109 -3132,-3414 -766,-1321 -1343,-2709 -1719,-4180 -390,-1475 -625,-2992 -730,-4582 -107,-1588 -153,-3132 -153,-4628 v -26197 h 6004 v 26105 c 0,3037 260,5510 778,7417 518,1906 1281,3389 2296,4462 1011,1073 2249,1802 3720,2191 1471,386 3154,589 5039,589 1906,0 3591,-203 5050,-589 1462,-389 2685,-1118 3675,-2203 990,-1082 1740,-2578 2259,-4487 520,-1906 778,-4367 778,-7380 v -26105 h 6004 v 26197 c 0,3132 -258,5936 -788,8397 -530,2471 -1471,4567 -2813,6261 -1343,1699 -3169,3004 -5465,3911 -2295,907 -5203,1367 -8713,1367 z m 105849,-779 h -6169 l -23853,-35804 v 35804 h -5651 v -45354 h 6169 l 23782,35830 v -35830 h 5722 z m 59109,0 h -6007 v -45354 h 6007 z m 90506,-31578 h -6147 c -93,-1425 -469,-2719 -1119,-3886 -659,-1165 -1529,-2155 -2614,-2967 -1082,-824 -2354,-1446 -3813,-1882 -1474,-438 -3028,-661 -4686,-661 -2286,0 -4345,401 -6181,1201 -1851,812 -3426,1980 -4723,3521 -1305,1529 -2308,3439 -3003,5722 -705,2283 -1057,4897 -1057,7830 0,2942 352,5544 1057,7806 695,2262 1685,4168 2969,5734 1281,1554 2835,2743 4662,3555 1836,812 3874,1226 6132,1226 3571,0 6467,-861 8655,-2581 2204,-1716 3451,-4201 3721,-7450 h 6147 c -211,2412 -803,4554 -1802,6427 -989,1860 -2283,3451 -3898,4744 -1612,1296 -3509,2299 -5664,2979 -2166,696 -4520,1039 -7052,1039 -3248,0 -6169,-555 -8770,-1661 -2602,-1094 -4828,-2660 -6654,-4698 -1836,-2038 -3249,-4509 -4239,-7408 -989,-2905 -1483,-6144 -1483,-9712 0,-3555 506,-6794 1508,-9702 999,-2897 2412,-5370 4251,-7405 1823,-2038 4039,-3604 6641,-4723 2611,-1118 5519,-1670 8746,-1670 2415,0 4699,340 6841,1036 2142,693 4039,1682 5688,2979 1649,1281 2979,2825 4027,4627 1036,1800 1649,3792 1860,5980 z m 74001,13000 -7972,-20983 -7594,20983 z m 13788,18578 h -6795 l -5216,-13775 h -19004 l -4992,13775 h -6311 l 17356,-45354 h 6509 z m 79602,-39985 h -15047 v 39985 h -6004 v -39985 h -14907 v -5369 h 35958 z m 68279,-6144 c 3120,0 6019,564 8666,1682 2661,1131 4944,2722 6865,4757 1919,2050 3427,4511 4496,7395 1085,2884 1624,6086 1624,9595 0,3473 -526,6642 -1587,9513 -1060,2875 -2544,5357 -4474,7429 -1931,2084 -4227,3699 -6865,4827 -2648,1143 -5557,1710 -8725,1710 -3191,0 -6121,-567 -8772,-1686 -2660,-1130 -4943,-2718 -6865,-4780 -1918,-2060 -3413,-4533 -4483,-7429 -1073,-2897 -1603,-6087 -1603,-9584 0,-3533 543,-6745 1624,-9644 1073,-2897 2593,-5367 4533,-7405 1943,-2050 4229,-3625 6865,-4722 2627,-1107 5535,-1658 8701,-1658 z m -47,41750 c 2250,0 4334,-423 6240,-1260 1910,-836 3555,-2037 4934,-3616 1376,-1566 2449,-3484 3228,-5743 763,-2262 1152,-4830 1152,-7689 0,-2921 -389,-5499 -1177,-7748 -779,-2249 -1848,-4156 -3227,-5722 -1364,-1554 -2991,-2734 -4873,-3546 -1885,-799 -3935,-1201 -6148,-1201 -2225,0 -4308,414 -6240,1238 -1930,825 -3579,2026 -4946,3580 -1376,1566 -2448,3472 -3224,5721 -791,2250 -1177,4803 -1177,7678 0,2859 377,5427 1140,7689 754,2259 1827,4177 3203,5743 1379,1579 3015,2780 4897,3616 1885,837 3957,1260 6218,1260 z m 109888,4379 h -6500 l -4251,-12126 c -386,-1048 -903,-2026 -1541,-2909 -622,-882 -1376,-1636 -2237,-2271 -871,-637 -1824,-1131 -2872,-1495 -1048,-368 -2154,-555 -3331,-555 h -11128 v 19356 h -6004 v -45354 h 20062 c 1225,0 2390,24 3509,70 1106,50 2154,166 3132,378 977,211 1918,505 2813,895 895,388 1744,931 2556,1624 1376,1179 2412,2626 3120,4358 696,1740 1048,3521 1048,5332 0,1566 -236,3016 -708,4371 -469,1342 -1140,2531 -2022,3567 -874,1036 -1943,1894 -3203,2602 -1263,705 -2675,1235 -4242,1599 3123,966 5547,3709 7279,8208 z m -31860,-24796 h 13457 c 3733,0 6430,-588 8112,-1753 1686,-1180 2519,-3215 2519,-6135 0,-5097 -3248,-7653 -9736,-7653 h -14352 z"
   id="path3"
   inkscape:connector-curvature="0"
   style="fill:#000000" />
 </g>
 <g
   id="Layer_x0020_3"
   transform="translate(-85590,-64865.413)">
  <metadata
   id="CorelCorpID_1Corel-Layer" />
  <path
   d="m 197764,255609 h -21407 v -75811 l -25535,75811 h -18566 l -25259,-75811 v 75811 H 85590 V 137349 h 28655 l 27432,84316 27493,-84316 h 28594 z m 57730,-153918 14086,5731 -57044,148187 h 23365 l 12385,-33852 h 41379 l 12906,33852 h 24649 l -44889,-110357 -10867,28144 11321,29614 h -27892 l 33359,-87991 16259,6617 -9409,-50797 c 0,0 -39838,30527 -39608,30852 z m 153134,121748 c -763,-2204 -1833,-4251 -3209,-6117 -1379,-1897 -2967,-3518 -4741,-4894 -1805,-1376 -3794,-2446 -5964,-3240 -2170,-766 -4496,-1164 -6942,-1164 h -23671 v 47585 H 341989 V 137349 h 53031 c 3182,0 6179,61 9054,214 2871,154 5626,491 8256,1039 2599,521 5137,1346 7524,2418 2384,1070 4676,2538 6880,4371 3883,3303 6788,7309 8747,12019 1924,4710 2905,9574 2905,14527 0,7217 -1744,13426 -5231,18593 -3516,5170 -8287,9115 -14401,11867 2568,1897 4891,4342 6911,7279 2016,2966 3821,6607 5381,10885 l 12722,35048 h -23825 z m -44527,-35753 h 29390 c 3944,0 7340,-275 10123,-793 2813,-552 5106,-1438 6911,-2691 1805,-1254 3120,-2875 3944,-4895 827,-1988 1257,-4465 1257,-7370 0,-5259 -1622,-9111 -4895,-11560 -3242,-2446 -8287,-3669 -15078,-3669 h -31652 z m 203953,67923 h -28319 l -38259,-53672 -13182,12998 v 40674 H 466183 V 137349 h 22111 v 49727 l 49208,-49727 h 30092 l -50430,49360 z m 106090,0 H 583742 V 137349 h 87803 v 20337 h -65753 v 26697 h 61530 v 20156 h -61530 v 30736 h 68352 z m 109943,-97923 h -36822 v 97923 h -22140 v -97923 h -36638 v -20337 h 95600 z m 41683,97923 H 803811 V 137349 h 21959 z m 123431,0 h -20767 l -52783,-79115 v 79115 H 854425 V 137349 h 20858 l 52511,79210 v -79210 h 21407 z m 109391,-81254 c -1345,-6086 -4554,-10797 -9571,-14070 -5017,-3301 -11468,-4922 -19360,-4922 -5136,0 -9816,886 -14067,2691 -4220,1774 -7888,4434 -10916,7919 -3059,3488 -5415,7769 -7098,12847 -1649,5075 -2507,10947 -2507,17552 0,6515 858,12357 2568,17493 1683,5139 4067,9482 7129,13028 3028,3549 6665,6270 10916,8168 4251,1863 8931,2813 14067,2813 7402,0 13733,-1073 18962,-3243 5231,-2142 9632,-5504 13211,-10122 v -12357 h -29298 v -20426 h 51073 v 63883 h -16942 l -2874,-8501 c -4098,3396 -8992,5964 -14588,7738 -5627,1774 -12081,2630 -19360,2660 -8593,-30 -16420,-1468 -23485,-4404 -7036,-2936 -13061,-7064 -18075,-12415 -5048,-5354 -8931,-11774 -11714,-19268 -2782,-7493 -4158,-15841 -4158,-25047 0,-9296 1376,-17736 4158,-25259 2783,-7524 6666,-13917 11714,-19176 5014,-5259 11008,-9296 17984,-12143 6999,-2813 14707,-4250 23117,-4250 6760,0 13058,919 18900,2755 5872,1802 11072,4401 15660,7766 4557,3395 8348,7462 11315,12231 2997,4802 4983,10126 6025,16059 z"
   id="path7"
   inkscape:connector-curvature="0"
   style="fill:#000000" />
 </g>
 <g
   id="Layer_x0020_4"
   transform="translate(-85590,-64865.413)">
  <metadata
   id="CorelCorpID_2Corel-Layer" />
  <path
   d="m 130304,74241 h -16972 v 45136 H 103126 V 74241 H 86240 v -9376 h 44064 z m 52780,45136 H 172848 V 95215 h -23285 v 24162 H 139397 V 64865 h 10166 v 20975 h 23285 V 64865 h 10236 z m 54892,0 H 196306 V 64865 h 40472 v 9376 h -30307 v 12304 h 28361 v 9292 h -28361 v 14165 h 31505 z"
   id="path11"
   inkscape:connector-curvature="0"
   style="fill:#000000" />
 </g>
</svg>