<?xml version="1.0" encoding="UTF-8" standalone="no"?>
<!-- Generator: Adobe Illustrator 25.2.0, SVG Export Plug-In . SVG Version: 6.00 Build 0)  -->

<svg
   xmlns:dc="http://purl.org/dc/elements/1.1/"
   xmlns:cc="http://creativecommons.org/ns#"
   xmlns:rdf="http://www.w3.org/1999/02/22-rdf-syntax-ns#"
   xmlns:svg="http://www.w3.org/2000/svg"
   xmlns="http://www.w3.org/2000/svg"
   xmlns:sodipodi="http://sodipodi.sourceforge.net/DTD/sodipodi-0.dtd"
   xmlns:inkscape="http://www.inkscape.org/namespaces/inkscape"
   version="1.1"
   id="Layer_1"
   x="0px"
   y="0px"
   viewBox="0 0 370.16 105.92"
   xml:space="preserve"
   sodipodi:docname="US-Daily-Ledger-Ekin-SVG_cropped.svg"
   width="370.16"
   height="105.92"
   inkscape:version="0.92.3 (2405546, 2018-03-11)"><metadata
   id="metadata45"><rdf:RDF><cc:Work
       rdf:about=""><dc:format>image/svg+xml</dc:format><dc:type
         rdf:resource="http://purl.org/dc/dcmitype/StillImage" /></cc:Work></rdf:RDF></metadata><defs
   id="defs43" /><sodipodi:namedview
   pagecolor="#ffffff"
   bordercolor="#666666"
   borderopacity="1"
   objecttolerance="10"
   gridtolerance="10"
   guidetolerance="10"
   inkscape:pageopacity="0"
   inkscape:pageshadow="2"
   inkscape:window-width="640"
   inkscape:window-height="480"
   id="namedview41"
   showgrid="false"
   inkscape:zoom="0.835"
   inkscape:cx="186.59"
   inkscape:cy="51.900002"
   inkscape:window-x="0"
   inkscape:window-y="0"
   inkscape:window-maximized="0"
   inkscape:current-layer="Layer_1" />
<style
   type="text/css"
   id="style2">
	.st0{fill:#2E3192;}
	.st1{fill:#BE1E2D;}
	.st2{fill:#FFFFFF;}
</style>
<rect
   x="18.75"
   y="23.049999"
   class="st0"
   width="351.41"
   height="82.870003"
   id="rect4"
   style="fill:#2e3192" />
<rect
   x="18.75"
   y="20.009998"
   class="st1"
   width="348.91"
   height="82.720001"
   id="rect6"
   style="fill:#be1e2d" />
<path
   class="st0"
   d="m 38.42,76.84 v 0 C 17.2,76.84 0,59.64 0,38.42 v 0 C 0,17.2 17.2,0 38.42,0 v 0 c 21.22,0 38.42,17.2 38.42,38.42 v 0 C 76.83,59.64 59.63,76.84 38.42,76.84 Z"
   id="path8"
   inkscape:connector-curvature="0"
   style="fill:#2e3192" />
<g
   id="g14"
   transform="translate(-13.41,-58.48)">
	<path
   class="st2"
   d="m 37.32,84.42 v 0.57 h -3.78 v 18.42 c 0,1.29 0.06,2.54 0.18,3.75 0.12,1.22 0.41,2.3 0.86,3.26 0.45,0.96 1.12,1.73 2.01,2.32 0.89,0.59 2.09,0.88 3.59,0.88 1.48,0 2.71,-0.17 3.71,-0.51 1,-0.34 1.83,-0.79 2.48,-1.35 0.66,-0.56 1.16,-1.19 1.52,-1.89 0.36,-0.7 0.62,-1.4 0.78,-2.09 0.16,-0.7 0.26,-1.35 0.29,-1.97 0.03,-0.62 0.04,-1.13 0.04,-1.54 V 84.99 h -3.73 v -0.57 h 8.21 v 0.57 h -3.82 v 19.24 c 0,0.44 -0.01,0.99 -0.04,1.66 -0.03,0.67 -0.14,1.37 -0.33,2.11 -0.19,0.74 -0.48,1.48 -0.86,2.22 -0.38,0.74 -0.94,1.4 -1.68,1.99 -0.74,0.59 -1.67,1.07 -2.79,1.44 -1.12,0.37 -2.5,0.55 -4.14,0.55 -2.65,0 -4.79,-0.29 -6.4,-0.88 -1.61,-0.59 -2.85,-1.35 -3.71,-2.3 -0.86,-0.94 -1.43,-2.02 -1.7,-3.22 -0.27,-1.2 -0.41,-2.42 -0.41,-3.65 V 84.99 h -3.82 v -0.57 z"
   id="path10"
   inkscape:connector-curvature="0"
   style="fill:#ffffff" />
	<path
   class="st2"
   d="m 57.59,104.52 c 0.05,0.33 0.15,0.76 0.29,1.29 0.14,0.53 0.33,1.11 0.59,1.72 0.26,0.62 0.59,1.25 0.98,1.89 0.4,0.64 0.88,1.24 1.46,1.78 0.63,0.63 1.24,1.11 1.83,1.44 0.59,0.33 1.15,0.57 1.68,0.72 0.53,0.15 1.04,0.23 1.52,0.25 0.48,0.01 0.92,0.02 1.33,0.02 1.45,0 2.64,-0.23 3.57,-0.68 0.93,-0.45 1.66,-1.01 2.2,-1.66 0.53,-0.66 0.91,-1.35 1.13,-2.07 0.22,-0.72 0.33,-1.36 0.33,-1.91 0,-1.01 -0.24,-1.85 -0.72,-2.5 -0.48,-0.66 -1.12,-1.2 -1.91,-1.64 -0.79,-0.44 -1.7,-0.81 -2.71,-1.11 -1.01,-0.3 -2.05,-0.61 -3.12,-0.92 -1.07,-0.31 -2.11,-0.68 -3.12,-1.11 -1.01,-0.42 -1.91,-0.97 -2.71,-1.64 -0.79,-0.67 -1.43,-1.5 -1.91,-2.48 -0.48,-0.98 -0.72,-2.22 -0.72,-3.69 0,-1.09 0.25,-2.15 0.74,-3.16 0.49,-1.01 1.18,-1.91 2.05,-2.69 0.88,-0.78 1.92,-1.41 3.14,-1.89 1.22,-0.48 2.54,-0.72 3.96,-0.72 0.9,0 1.7,0.08 2.38,0.25 0.68,0.16 1.29,0.34 1.81,0.51 0.52,0.18 0.98,0.35 1.37,0.51 0.4,0.16 0.76,0.25 1.09,0.25 0.38,0 0.64,-0.06 0.76,-0.18 0.12,-0.12 0.25,-0.35 0.39,-0.68 h 0.66 v 7.8 H 75.4 c -0.33,-0.96 -0.68,-1.9 -1.05,-2.83 -0.37,-0.93 -0.84,-1.77 -1.42,-2.52 -0.57,-0.75 -1.3,-1.36 -2.17,-1.83 -0.88,-0.46 -1.98,-0.7 -3.32,-0.7 -1.09,0 -2.06,0.15 -2.89,0.45 -0.84,0.3 -1.54,0.7 -2.11,1.19 -0.57,0.49 -1.01,1.04 -1.31,1.64 -0.3,0.6 -0.45,1.22 -0.45,1.85 0,0.96 0.25,1.75 0.76,2.38 0.51,0.63 1.17,1.17 1.99,1.62 0.82,0.45 1.76,0.84 2.81,1.17 1.05,0.33 2.13,0.67 3.24,1.03 1.11,0.36 2.19,0.75 3.24,1.17 1.05,0.42 1.99,0.96 2.81,1.62 0.82,0.66 1.48,1.45 1.99,2.38 0.51,0.93 0.76,2.08 0.76,3.45 0,1.34 -0.27,2.61 -0.82,3.82 -0.55,1.2 -1.32,2.26 -2.32,3.16 -1,0.9 -2.19,1.62 -3.57,2.15 -1.38,0.53 -2.92,0.8 -4.62,0.8 -0.85,0 -1.69,-0.08 -2.52,-0.25 -0.84,-0.16 -1.61,-0.33 -2.34,-0.51 -0.73,-0.18 -1.37,-0.35 -1.93,-0.51 -0.56,-0.16 -0.98,-0.25 -1.25,-0.25 -0.38,0 -0.66,0.06 -0.82,0.18 -0.16,0.12 -0.31,0.38 -0.45,0.76 h -0.66 v -9.11 z"
   id="path12"
   inkscape:connector-curvature="0"
   style="fill:#ffffff" />
</g>
<g
   id="g38"
   transform="translate(-13.41,-58.48)">
	<path
   class="st2"
   d="m 104.41,105.1 v -0.59 h 3.88 c 1.44,0 2.87,-0.02 4.31,-0.06 1.44,-0.04 2.87,-0.06 4.31,-0.06 1.27,0 2.6,0.08 4.01,0.25 1.41,0.17 2.8,0.47 4.18,0.91 1.38,0.44 2.69,1.02 3.93,1.75 1.24,0.73 2.34,1.66 3.29,2.79 0.96,1.13 1.72,2.46 2.28,4.01 0.56,1.55 0.84,3.36 0.84,5.45 0,2.05 -0.28,3.86 -0.84,5.4 -0.56,1.55 -1.32,2.89 -2.26,4.01 -0.94,1.13 -2.02,2.05 -3.23,2.79 -1.21,0.73 -2.47,1.32 -3.78,1.75 -1.31,0.44 -2.6,0.74 -3.88,0.91 -1.28,0.17 -2.47,0.25 -3.57,0.25 -1.6,0 -3.2,-0.01 -4.79,-0.04 -1.59,-0.03 -3.19,-0.04 -4.79,-0.04 h -3.88 v -0.59 h 3.88 v -28.88 h -3.89 z m 12.25,29.01 c 1.83,0 3.39,-0.22 4.69,-0.65 1.29,-0.44 2.39,-1.03 3.27,-1.77 0.89,-0.75 1.59,-1.6 2.11,-2.55 0.52,-0.96 0.91,-1.96 1.18,-3.02 0.27,-1.06 0.44,-2.11 0.53,-3.17 0.08,-1.06 0.13,-2.05 0.13,-2.98 0,-2.28 -0.14,-4.34 -0.42,-6.18 -0.28,-1.84 -0.84,-3.42 -1.67,-4.73 -0.83,-1.31 -2,-2.31 -3.5,-3.02 -1.51,-0.7 -3.48,-1.06 -5.93,-1.06 -0.56,0 -1.07,0.01 -1.52,0.02 -0.45,0.01 -0.82,0.05 -1.1,0.11 v 28.88 c 0.8,0.07 1.55,0.12 2.23,0.12 z"
   id="path16"
   inkscape:connector-curvature="0"
   style="fill:#ffffff" />
	<path
   class="st2"
   d="m 157.16,134.95 c -0.75,0.11 -1.44,0.17 -2.09,0.17 -1.44,0 -2.5,-0.25 -3.19,-0.76 -0.69,-0.51 -1.12,-1.21 -1.29,-2.11 h -0.08 c -0.45,1.13 -1.07,1.89 -1.86,2.28 -0.79,0.39 -1.93,0.59 -3.42,0.59 -0.68,0 -1.37,-0.07 -2.07,-0.21 -0.7,-0.14 -1.35,-0.37 -1.94,-0.68 -0.59,-0.31 -1.07,-0.74 -1.44,-1.29 -0.37,-0.55 -0.55,-1.22 -0.55,-2.01 0,-0.82 0.16,-1.5 0.49,-2.05 0.32,-0.55 0.75,-1.01 1.27,-1.39 0.52,-0.38 1.11,-0.69 1.77,-0.93 0.66,-0.24 1.34,-0.47 2.05,-0.7 1.15,-0.34 2.09,-0.63 2.81,-0.87 0.72,-0.24 1.27,-0.49 1.67,-0.76 0.39,-0.27 0.67,-0.57 0.82,-0.91 0.15,-0.34 0.23,-0.77 0.23,-1.31 v -2.58 c 0,-0.76 -0.18,-1.45 -0.55,-2.07 -0.37,-0.62 -1.06,-0.93 -2.07,-0.93 -0.65,0 -1.21,0.15 -1.69,0.44 -0.48,0.3 -0.72,0.84 -0.72,1.63 0,0.08 0.01,0.23 0.04,0.44 0.03,0.21 0.06,0.44 0.08,0.7 0.03,0.25 0.06,0.49 0.08,0.72 0.03,0.23 0.04,0.38 0.04,0.46 0,0.42 -0.1,0.75 -0.3,0.99 -0.2,0.24 -0.43,0.42 -0.7,0.53 -0.27,0.11 -0.55,0.18 -0.84,0.19 -0.3,0.01 -0.54,0.02 -0.74,0.02 -0.28,0 -0.57,-0.02 -0.87,-0.06 -0.3,-0.04 -0.56,-0.14 -0.78,-0.3 -0.23,-0.15 -0.42,-0.37 -0.57,-0.65 -0.15,-0.28 -0.23,-0.66 -0.23,-1.14 0,-0.73 0.2,-1.39 0.61,-1.96 0.41,-0.58 0.95,-1.06 1.63,-1.44 0.68,-0.38 1.44,-0.67 2.3,-0.87 0.86,-0.2 1.75,-0.3 2.68,-0.3 1.07,0 2.08,0.08 3.02,0.25 0.94,0.17 1.76,0.48 2.45,0.93 0.69,0.45 1.24,1.06 1.65,1.84 0.41,0.77 0.61,1.75 0.61,2.93 v 10.47 c 0,0.54 0.08,1.01 0.23,1.41 0.15,0.41 0.54,0.61 1.16,0.61 0.37,0 0.67,-0.07 0.91,-0.21 0.24,-0.14 0.47,-0.34 0.7,-0.59 l 0.38,0.38 c -0.37,0.64 -0.94,0.99 -1.69,1.1 z m -6.9,-10.85 c -0.06,0.17 -0.16,0.33 -0.32,0.49 -0.15,0.15 -0.43,0.33 -0.82,0.53 -0.53,0.25 -1.07,0.5 -1.6,0.74 -0.53,0.24 -1.01,0.54 -1.44,0.91 -0.42,0.37 -0.77,0.82 -1.03,1.35 -0.27,0.53 -0.4,1.22 -0.4,2.07 0,0.34 0.02,0.73 0.06,1.18 0.04,0.45 0.15,0.89 0.34,1.31 0.18,0.42 0.46,0.78 0.82,1.08 0.37,0.3 0.87,0.44 1.52,0.44 0.37,0 0.72,-0.08 1.08,-0.25 0.35,-0.17 0.67,-0.43 0.95,-0.78 0.28,-0.35 0.51,-0.82 0.68,-1.39 0.17,-0.58 0.25,-1.27 0.25,-2.09 v -5.57 h -0.09 z"
   id="path18"
   inkscape:connector-curvature="0"
   style="fill:#ffffff" />
	<path
   class="st2"
   d="m 168.88,116.46 v 17.52 h 2.83 v 0.59 H 160.9 v -0.59 h 2.83 v -16.93 h -2.83 v -0.59 c 0,0 7.98,0 7.98,0 z m -4.69,-11.19 c 0.59,-0.59 1.29,-0.89 2.11,-0.89 0.82,0 1.52,0.3 2.11,0.89 0.59,0.59 0.89,1.29 0.89,2.11 0,0.82 -0.3,1.52 -0.89,2.11 -0.59,0.59 -1.29,0.89 -2.11,0.89 -0.82,0 -1.52,-0.3 -2.11,-0.89 -0.59,-0.59 -0.89,-1.29 -0.89,-2.11 0,-0.81 0.3,-1.52 0.89,-2.11 z"
   id="path20"
   inkscape:connector-curvature="0"
   style="fill:#ffffff" />
	<path
   class="st2"
   d="m 182.18,104.13 v 29.85 h 2.83 v 0.59 H 174.2 v -0.59 h 2.83 v -29.26 h -2.83 v -0.59 c 0,0 7.98,0 7.98,0 z"
   id="path22"
   inkscape:connector-curvature="0"
   style="fill:#ffffff" />
	<path
   class="st2"
   d="m 203.96,117.05 h -3.5 v -0.59 h 6.12 v 0.59 h -1.94 c -1.58,3.38 -2.93,6.4 -4.05,9.08 -1.13,2.67 -2.1,5.05 -2.93,7.13 -0.83,2.08 -1.56,3.92 -2.2,5.51 -0.63,1.59 -1.23,2.99 -1.79,4.2 -0.56,1.27 -1.2,2.2 -1.9,2.79 -0.7,0.59 -1.65,0.89 -2.83,0.89 -1.27,0 -2.3,-0.3 -3.1,-0.91 -0.8,-0.61 -1.2,-1.44 -1.2,-2.51 0,-0.82 0.26,-1.41 0.78,-1.77 0.52,-0.37 1.15,-0.55 1.88,-0.55 0.53,0 1.04,0.15 1.52,0.44 0.48,0.3 0.72,0.74 0.72,1.33 0,0.51 -0.09,0.91 -0.27,1.22 -0.18,0.31 -0.27,0.68 -0.27,1.1 0,0.31 0.08,0.54 0.25,0.7 0.17,0.15 0.37,0.23 0.59,0.23 0.51,0 0.98,-0.18 1.41,-0.55 0.44,-0.37 0.83,-0.82 1.18,-1.37 0.35,-0.55 0.66,-1.13 0.93,-1.75 0.27,-0.62 0.5,-1.18 0.7,-1.69 l 1.82,-4.52 -7.94,-19 h -2.24 v -0.59 h 10.72 v 0.59 h -2.96 l 5.15,12.2 z"
   id="path24"
   inkscape:connector-curvature="0"
   style="fill:#ffffff" />
	<path
   class="st2"
   d="m 233.85,104.51 v 0.59 h -3.88 v 28.88 h 6.97 c 0.93,0 1.86,-0.15 2.81,-0.46 0.94,-0.31 1.83,-0.82 2.66,-1.54 0.83,-0.72 1.58,-1.65 2.24,-2.79 0.66,-1.14 1.17,-2.53 1.54,-4.16 h 0.55 v 9.54 h -26.77 v -0.59 h 3.88 V 105.1 h -3.88 v -0.59 c 0,0 13.88,0 13.88,0 z"
   id="path26"
   inkscape:connector-curvature="0"
   style="fill:#ffffff" />
	<path
   class="st2"
   d="m 255.67,125.87 c 0,1.01 0.04,2.03 0.13,3.06 0.08,1.03 0.31,1.96 0.68,2.79 0.37,0.83 0.9,1.51 1.6,2.05 0.7,0.53 1.69,0.8 2.96,0.8 1.13,0 2.08,-0.21 2.85,-0.63 0.77,-0.42 1.41,-0.91 1.9,-1.46 0.49,-0.55 0.86,-1.09 1.1,-1.63 0.24,-0.53 0.37,-0.93 0.4,-1.18 l 0.59,0.21 c -0.14,0.53 -0.38,1.1 -0.72,1.71 -0.34,0.61 -0.8,1.17 -1.39,1.69 -0.59,0.52 -1.32,0.96 -2.2,1.31 -0.87,0.35 -1.93,0.53 -3.17,0.53 -1.46,0 -2.83,-0.22 -4.09,-0.65 -1.27,-0.44 -2.37,-1.07 -3.31,-1.9 -0.94,-0.83 -1.68,-1.84 -2.22,-3.04 -0.53,-1.2 -0.8,-2.55 -0.8,-4.07 0,-1.21 0.25,-2.39 0.76,-3.55 0.51,-1.15 1.2,-2.17 2.09,-3.06 0.89,-0.89 1.93,-1.6 3.12,-2.15 1.2,-0.55 2.48,-0.82 3.86,-0.82 0.98,0 1.97,0.15 2.96,0.46 0.98,0.31 1.87,0.79 2.66,1.44 0.79,0.65 1.44,1.48 1.94,2.51 0.51,1.03 0.76,2.26 0.76,3.69 h -12.45 z m 6.76,-5.31 c 0,-0.31 -0.01,-0.69 -0.04,-1.14 -0.03,-0.45 -0.13,-0.9 -0.3,-1.35 -0.17,-0.45 -0.44,-0.83 -0.82,-1.14 -0.38,-0.31 -0.91,-0.46 -1.58,-0.46 -0.96,0 -1.7,0.23 -2.22,0.68 -0.52,0.45 -0.91,1.02 -1.16,1.71 -0.25,0.69 -0.42,1.44 -0.49,2.24 -0.07,0.8 -0.12,1.57 -0.15,2.3 h 6.75 z"
   id="path28"
   inkscape:connector-curvature="0"
   style="fill:#ffffff" />
	<path
   class="st2"
   d="m 293.33,133.98 v 0.59 h -7.85 v -3.12 h -0.08 c -0.45,1.18 -1.08,2.09 -1.88,2.72 -0.8,0.63 -1.84,0.95 -3.1,0.95 -1.38,0 -2.63,-0.27 -3.76,-0.8 -1.13,-0.53 -2.09,-1.25 -2.89,-2.13 -0.8,-0.89 -1.43,-1.91 -1.88,-3.06 -0.45,-1.15 -0.68,-2.36 -0.68,-3.63 0,-0.98 0.18,-2.04 0.53,-3.17 0.35,-1.13 0.9,-2.17 1.65,-3.12 0.75,-0.96 1.7,-1.75 2.85,-2.39 1.15,-0.63 2.55,-0.95 4.18,-0.95 1.27,0 2.29,0.3 3.08,0.89 0.79,0.59 1.39,1.48 1.82,2.66 h 0.08 v -14.69 h -2.87 v -0.59 h 8.02 v 29.85 h 2.78 z m -8.08,-11.44 c -0.1,-1.07 -0.3,-2.05 -0.61,-2.96 -0.31,-0.9 -0.77,-1.65 -1.39,-2.24 -0.62,-0.59 -1.45,-0.89 -2.49,-0.89 -0.7,0 -1.3,0.16 -1.79,0.46 -0.49,0.31 -0.89,0.82 -1.2,1.52 -0.31,0.7 -0.53,1.64 -0.65,2.81 -0.13,1.17 -0.19,2.6 -0.19,4.29 0,1.38 0.04,2.62 0.11,3.74 0.07,1.11 0.22,2.06 0.46,2.85 0.24,0.79 0.59,1.39 1.06,1.82 0.46,0.42 1.09,0.63 1.88,0.63 1.18,0 2.1,-0.3 2.77,-0.91 0.66,-0.6 1.16,-1.36 1.5,-2.28 0.34,-0.91 0.54,-1.9 0.61,-2.96 0.07,-1.06 0.11,-2.02 0.11,-2.89 -0.04,-0.92 -0.09,-1.92 -0.18,-2.99 z"
   id="path30"
   inkscape:connector-curvature="0"
   style="fill:#ffffff" />
	<path
   class="st2"
   d="m 309.77,131.89 c 0.97,0.21 1.82,0.57 2.55,1.08 0.73,0.51 1.32,1.19 1.77,2.05 0.45,0.86 0.68,1.93 0.68,3.23 0,1.1 -0.23,2.17 -0.68,3.21 -0.45,1.04 -1.11,1.97 -1.98,2.79 -0.87,0.82 -1.92,1.48 -3.15,1.98 -1.22,0.51 -2.62,0.76 -4.2,0.76 -1.77,0 -3.19,-0.2 -4.24,-0.59 -1.06,-0.39 -1.86,-0.87 -2.43,-1.41 -0.56,-0.55 -0.93,-1.11 -1.1,-1.69 -0.17,-0.58 -0.25,-1.06 -0.25,-1.46 0,-0.76 0.17,-1.44 0.51,-2.03 0.34,-0.59 0.78,-1.1 1.33,-1.54 0.55,-0.44 1.15,-0.81 1.82,-1.12 0.66,-0.31 1.32,-0.55 1.96,-0.72 v -0.08 c -0.56,0 -1.2,-0.07 -1.92,-0.21 -0.72,-0.14 -1.39,-0.38 -2.01,-0.72 -0.62,-0.34 -1.14,-0.8 -1.56,-1.39 -0.42,-0.59 -0.63,-1.32 -0.63,-2.2 0,-0.14 0.03,-0.39 0.11,-0.76 0.07,-0.37 0.23,-0.79 0.49,-1.29 0.25,-0.49 0.64,-1.01 1.16,-1.54 0.52,-0.53 1.22,-1.04 2.09,-1.52 -0.25,-0.2 -0.53,-0.43 -0.84,-0.7 -0.31,-0.27 -0.6,-0.58 -0.87,-0.93 -0.27,-0.35 -0.49,-0.76 -0.68,-1.22 -0.18,-0.46 -0.27,-1.01 -0.27,-1.63 0,-0.87 0.19,-1.7 0.57,-2.47 0.38,-0.77 0.92,-1.45 1.63,-2.03 0.7,-0.58 1.57,-1.03 2.6,-1.37 1.03,-0.34 2.17,-0.51 3.44,-0.51 1.27,0 2.36,0.2 3.27,0.59 0.91,0.39 1.7,0.84 2.34,1.35 0.7,-0.65 1.34,-1.13 1.9,-1.46 0.56,-0.32 1.31,-0.49 2.24,-0.49 0.82,0 1.43,0.2 1.84,0.61 0.41,0.41 0.61,0.94 0.61,1.58 0,0.56 -0.17,1.01 -0.51,1.33 -0.34,0.32 -0.79,0.49 -1.35,0.49 -0.39,0 -0.71,-0.06 -0.95,-0.17 -0.24,-0.11 -0.42,-0.25 -0.55,-0.4 -0.13,-0.15 -0.21,-0.32 -0.25,-0.51 -0.04,-0.18 -0.08,-0.33 -0.11,-0.44 -0.06,-0.39 -0.11,-0.69 -0.17,-0.89 -0.06,-0.2 -0.24,-0.3 -0.55,-0.3 -0.17,0 -0.37,0.06 -0.59,0.19 -0.23,0.13 -0.62,0.39 -1.18,0.78 0.34,0.37 0.7,0.85 1.1,1.46 0.39,0.61 0.59,1.48 0.59,2.64 0,0.7 -0.13,1.4 -0.4,2.09 -0.27,0.69 -0.7,1.32 -1.31,1.88 -0.61,0.56 -1.39,1.02 -2.34,1.37 -0.96,0.35 -2.14,0.53 -3.55,0.53 -1.13,0 -2.13,-0.11 -3,-0.34 -0.87,-0.22 -1.59,-0.45 -2.15,-0.68 -0.82,0.53 -1.29,0.99 -1.44,1.37 -0.14,0.38 -0.21,0.72 -0.21,1.03 0,0.7 0.28,1.22 0.84,1.56 0.56,0.34 1.32,0.51 2.28,0.51 h 4.64 c 1.07,0.03 2.09,0.14 3.06,0.35 z m -9.01,10.91 c 0.14,0.59 0.41,1.15 0.8,1.67 0.39,0.52 0.93,0.95 1.6,1.29 0.68,0.34 1.55,0.51 2.62,0.51 0.82,0 1.59,-0.14 2.32,-0.42 0.73,-0.28 1.37,-0.68 1.92,-1.18 0.55,-0.51 0.99,-1.11 1.33,-1.82 0.34,-0.7 0.51,-1.48 0.51,-2.32 0,-0.84 -0.14,-1.53 -0.42,-2.05 -0.28,-0.52 -0.63,-0.94 -1.06,-1.25 -0.42,-0.31 -0.89,-0.52 -1.39,-0.63 -0.51,-0.11 -0.97,-0.17 -1.39,-0.17 h -4.39 c -0.84,0.68 -1.5,1.35 -1.96,2.03 -0.46,0.68 -0.7,1.58 -0.7,2.7 0,0.5 0.07,1.05 0.21,1.64 z m 6.04,-15.47 c 0.39,-0.13 0.73,-0.38 1.01,-0.76 0.28,-0.38 0.5,-0.93 0.65,-1.65 0.15,-0.72 0.23,-1.65 0.23,-2.81 0,-0.82 -0.03,-1.57 -0.08,-2.26 -0.06,-0.69 -0.2,-1.29 -0.42,-1.79 -0.23,-0.51 -0.55,-0.9 -0.97,-1.18 -0.42,-0.28 -1.01,-0.42 -1.77,-0.42 -0.7,0 -1.28,0.15 -1.73,0.44 -0.45,0.3 -0.8,0.68 -1.03,1.16 -0.24,0.48 -0.4,1.03 -0.49,1.65 -0.08,0.62 -0.13,1.25 -0.13,1.9 0,1.32 0.08,2.38 0.25,3.17 0.17,0.79 0.4,1.39 0.7,1.79 0.3,0.41 0.65,0.67 1.08,0.78 0.42,0.11 0.87,0.17 1.35,0.17 0.5,0 0.95,-0.06 1.35,-0.19 z"
   id="path32"
   inkscape:connector-curvature="0"
   style="fill:#ffffff" />
	<path
   class="st2"
   d="m 324.49,125.87 c 0,1.01 0.04,2.03 0.13,3.06 0.08,1.03 0.31,1.96 0.68,2.79 0.37,0.83 0.9,1.51 1.6,2.05 0.7,0.53 1.69,0.8 2.96,0.8 1.13,0 2.08,-0.21 2.85,-0.63 0.77,-0.42 1.41,-0.91 1.9,-1.46 0.49,-0.55 0.86,-1.09 1.1,-1.63 0.24,-0.53 0.37,-0.93 0.4,-1.18 l 0.59,0.21 c -0.14,0.53 -0.38,1.1 -0.72,1.71 -0.34,0.61 -0.8,1.17 -1.39,1.69 -0.59,0.52 -1.32,0.96 -2.2,1.31 -0.87,0.35 -1.93,0.53 -3.17,0.53 -1.46,0 -2.83,-0.22 -4.09,-0.65 -1.27,-0.44 -2.37,-1.07 -3.31,-1.9 -0.94,-0.83 -1.68,-1.84 -2.22,-3.04 -0.53,-1.2 -0.8,-2.55 -0.8,-4.07 0,-1.21 0.25,-2.39 0.76,-3.55 0.51,-1.15 1.2,-2.17 2.09,-3.06 0.89,-0.89 1.93,-1.6 3.12,-2.15 1.2,-0.55 2.48,-0.82 3.86,-0.82 0.98,0 1.97,0.15 2.96,0.46 0.98,0.31 1.87,0.79 2.66,1.44 0.79,0.65 1.44,1.48 1.94,2.51 0.51,1.03 0.76,2.26 0.76,3.69 H 324.5 Z m 6.75,-5.31 c 0,-0.31 -0.01,-0.69 -0.04,-1.14 -0.03,-0.45 -0.13,-0.9 -0.3,-1.35 -0.17,-0.45 -0.44,-0.83 -0.82,-1.14 -0.38,-0.31 -0.91,-0.46 -1.58,-0.46 -0.96,0 -1.7,0.23 -2.22,0.68 -0.52,0.45 -0.91,1.02 -1.16,1.71 -0.25,0.69 -0.42,1.44 -0.49,2.24 -0.07,0.8 -0.12,1.57 -0.15,2.3 h 6.75 z"
   id="path34"
   inkscape:connector-curvature="0"
   style="fill:#ffffff" />
	<path
   class="st2"
   d="m 347.96,116.46 v 3.55 h 0.08 c 0.51,-1.07 1.19,-1.99 2.05,-2.77 0.86,-0.77 1.99,-1.16 3.4,-1.16 1.18,0 2.14,0.32 2.87,0.95 0.73,0.63 1.1,1.51 1.1,2.64 0,0.84 -0.2,1.51 -0.61,1.98 -0.41,0.48 -1.06,0.72 -1.96,0.72 -0.65,0 -1.24,-0.13 -1.77,-0.4 -0.53,-0.27 -0.8,-0.77 -0.8,-1.5 0,-0.08 0.01,-0.23 0.04,-0.44 0.03,-0.21 0.06,-0.44 0.11,-0.68 0.04,-0.24 0.08,-0.46 0.11,-0.65 0.03,-0.2 0.04,-0.31 0.04,-0.34 -0.03,-0.22 -0.07,-0.4 -0.13,-0.53 -0.06,-0.13 -0.15,-0.24 -0.27,-0.34 -0.13,-0.1 -0.32,-0.15 -0.57,-0.15 -0.28,0 -0.63,0.13 -1.06,0.4 -0.42,0.27 -0.82,0.65 -1.18,1.16 -0.37,0.51 -0.68,1.12 -0.95,1.84 -0.27,0.72 -0.4,1.53 -0.4,2.43 v 10.81 h 3.34 v 0.59 h -11.23 v -0.59 h 2.74 v -16.93 h -2.74 v -0.59 c 0,0 7.79,0 7.79,0 z"
   id="path36"
   inkscape:connector-curvature="0"
   style="fill:#ffffff" />
</g>
</svg>